<svg width="201" height="42" viewBox="0 0 201 42" fill="none" xmlns="http://www.w3.org/2000/svg">
	<rect x="0.5" y="0.5" width="200" height="41" rx="7.5" fill="#000000" />
	<path d="M43.4975 18.1677H16V13.8566C16 11.5163 18.0182 9.54553 20.4147 9.54553H39.0828C41.4793 9.54553 43.4975 11.5163 43.4975 13.8566V18.1677Z" fill="#34A853" />
	<path d="M43.4975 22.1455H16V17.5637C16 15.0764 18.0182 12.9818 20.4147 12.9818H39.0828C41.4793 12.9818 43.4975 15.0764 43.4975 17.5637V22.1455Z" fill="#FBBC04" />
	<path d="M43.4975 25.9637H16V21.3818C16 18.8946 18.0182 16.8 20.4147 16.8H39.0828C41.4793 16.8 43.4975 18.8946 43.4975 21.3818V25.9637Z" fill="#EA4335" />
	<path d="M16 19.2749L33.4527 23.2165C35.4617 23.7092 37.7218 23.2165 39.354 21.9847L43.4975 19.0285V28.2665C43.4975 30.6069 41.4886 32.4545 39.1029 32.4545H20.3946C18.0089 32.4545 16 30.6069 16 28.2665V19.2749Z" fill="url(#paint0_linear_461_34684)" />
	<path d="M52.4971 23.807L55.916 14.7428H57.4988L60.9303 23.807H59.3982L58.5624 21.4776H54.865L54.0292 23.807H52.4971ZM56.3338 17.4139L55.3335 20.1864H58.0939L57.0936 17.4139L56.7517 16.3758H56.6757L56.3338 17.4139ZM64.4966 24.0095C63.9141 24.0095 63.3866 23.8661 62.9138 23.5791C62.4495 23.2838 62.078 22.8786 61.7995 22.3638C61.5294 21.8406 61.3943 21.2456 61.3943 20.5788C61.3943 19.912 61.5294 19.3213 61.7995 18.8065C62.078 18.2916 62.4495 17.8865 62.9138 17.5912C63.3866 17.2958 63.9141 17.1481 64.4966 17.1481C64.9947 17.1481 65.421 17.2578 65.7755 17.4772C66.1385 17.6966 66.4044 17.9456 66.5732 18.2241H66.6492L66.5732 17.3253V14.7428H67.9281V23.807H66.6492V22.9461H66.5732C66.4044 23.2246 66.1385 23.4736 65.7755 23.693C65.421 23.9041 64.9947 24.0095 64.4966 24.0095ZM64.6992 22.7562C65.0369 22.7562 65.3535 22.6676 65.6489 22.4904C65.9528 22.3132 66.1934 22.0642 66.3706 21.7435C66.5564 21.4143 66.6492 21.0261 66.6492 20.5788C66.6492 20.1315 66.5564 19.7475 66.3706 19.4268C66.1934 19.0976 65.9528 18.8444 65.6489 18.6672C65.3535 18.49 65.0369 18.4014 64.6992 18.4014C64.3616 18.4014 64.045 18.49 63.7495 18.6672C63.4541 18.8444 63.2135 19.0976 63.0277 19.4268C62.8421 19.7475 62.7492 20.1315 62.7492 20.5788C62.7492 21.0261 62.8421 21.4143 63.0277 21.7435C63.2135 22.0642 63.4541 22.3132 63.7495 22.4904C64.045 22.6676 64.3616 22.7562 64.6992 22.7562ZM72.2376 24.0095C71.6551 24.0095 71.1275 23.8661 70.6548 23.5791C70.1904 23.2838 69.819 22.8786 69.5405 22.3638C69.2704 21.8406 69.1353 21.2456 69.1353 20.5788C69.1353 19.912 69.2704 19.3213 69.5405 18.8065C69.819 18.2916 70.1904 17.8865 70.6548 17.5912C71.1275 17.2958 71.6551 17.1481 72.2376 17.1481C72.7356 17.1481 73.1619 17.2578 73.5165 17.4772C73.8795 17.6966 74.1454 17.9456 74.3142 18.2241H74.3902L74.3142 17.3253V14.7428H75.6691V23.807H74.3902V22.9461H74.3142C74.1454 23.2246 73.8795 23.4736 73.5165 23.693C73.1619 23.9041 72.7356 24.0095 72.2376 24.0095ZM72.4402 22.7562C72.7779 22.7562 73.0945 22.6676 73.3899 22.4904C73.6938 22.3132 73.9344 22.0642 74.1116 21.7435C74.2974 21.4143 74.3902 21.0261 74.3902 20.5788C74.3902 20.1315 74.2974 19.7475 74.1116 19.4268C73.9344 19.0976 73.6938 18.8444 73.3899 18.6672C73.0945 18.49 72.7779 18.4014 72.4402 18.4014C72.1025 18.4014 71.7859 18.49 71.4905 18.6672C71.1951 18.8444 70.9545 19.0976 70.7687 19.4268C70.583 19.7475 70.4902 20.1315 70.4902 20.5788C70.4902 21.0261 70.583 21.4143 70.7687 21.7435C70.9545 22.0642 71.1951 22.3132 71.4905 22.4904C71.7859 22.6676 72.1025 22.7562 72.4402 22.7562ZM80.9191 21.9334V18.5406H79.7922V17.3506H80.9191V15.5277H82.2867V17.3506H83.87V18.5406H82.2867V21.6422C82.2867 21.9629 82.35 22.2077 82.4766 22.3765C82.6115 22.5452 82.8356 22.6296 83.1482 22.6296C83.308 22.6296 83.4434 22.6085 83.5534 22.5663C83.6713 22.5242 83.7891 22.4651 83.908 22.3891V23.7184C83.7638 23.7775 83.6119 23.8238 83.4521 23.8576C83.2914 23.8914 83.1015 23.9083 82.8823 23.9083C82.2825 23.9083 81.8055 23.7352 81.451 23.3892C81.0964 23.0347 80.9191 22.5495 80.9191 21.9334ZM87.9736 24.0095C87.3064 24.0095 86.72 23.8576 86.2135 23.5538C85.707 23.25 85.3096 22.8407 85.0232 22.3258C84.7359 21.811 84.5927 21.2286 84.5927 20.5788C84.5927 19.9374 84.7359 19.3593 85.0232 18.8444C85.3096 18.3212 85.707 17.9076 86.2135 17.6038C86.72 17.3 87.3064 17.1481 87.9736 17.1481C88.6321 17.1481 89.2146 17.3 89.7211 17.6038C90.2276 17.9076 90.624 18.3212 90.9113 18.8444C91.1977 19.3593 91.3419 19.9374 91.3419 20.5788C91.3419 21.2286 91.1977 21.811 90.9113 22.3258C90.624 22.8407 90.2276 23.25 89.7211 23.5538C89.2146 23.8576 88.6321 24.0095 87.9736 24.0095ZM87.9736 22.7562C88.3282 22.7562 88.6574 22.6718 88.9613 22.503C89.2652 22.3258 89.5097 22.0768 89.6957 21.7561C89.8896 21.427 89.987 21.0345 89.987 20.5788C89.987 20.1231 89.8896 19.7348 89.6957 19.4141C89.5097 19.085 89.2652 18.836 88.9613 18.6672C88.6574 18.49 88.3282 18.4014 87.9736 18.4014C87.6191 18.4014 87.285 18.49 86.9733 18.6672C86.6694 18.836 86.42 19.085 86.2262 19.4141C86.0401 19.7348 85.9476 20.1231 85.9476 20.5788C85.9476 21.0345 86.0401 21.427 86.2262 21.7561C86.42 22.0768 86.6694 22.3258 86.9733 22.503C87.285 22.6718 87.6191 22.7562 87.9736 22.7562Z" fill="white" />
	<path d="M100.211 24.4532C99.5446 24.4532 98.917 24.332 98.3283 24.0897C97.7484 23.8474 97.2332 23.5098 96.7831 23.0771C96.333 22.6357 95.9781 22.1208 95.7184 21.5323C95.4673 20.9351 95.3418 20.2904 95.3418 19.598C95.3418 18.9056 95.4673 18.2652 95.7184 17.6767C95.9781 17.0795 96.3287 16.5646 96.7701 16.1318C97.2203 15.6904 97.7397 15.3486 98.3283 15.1063C98.917 14.864 99.5446 14.7428 100.211 14.7428C100.921 14.7428 101.575 14.8682 102.172 15.1192C102.778 15.3702 103.284 15.7208 103.691 16.1708L102.704 17.1444C102.401 16.8069 102.038 16.5472 101.614 16.3655C101.198 16.1837 100.731 16.0929 100.211 16.0929C99.5965 16.0929 99.0295 16.24 98.5101 16.5343C97.9907 16.8199 97.5708 17.2266 97.2506 17.7545C96.9389 18.2738 96.7831 18.8883 96.7831 19.598C96.7831 20.3076 96.9433 20.9265 97.2636 21.4544C97.5838 21.9736 98.0037 22.3804 98.5231 22.6747C99.0425 22.9603 99.6095 23.1031 100.224 23.1031C100.787 23.1031 101.298 22.9992 101.756 22.7915C102.215 22.5752 102.583 22.2722 102.86 21.8828C103.146 21.4933 103.319 21.026 103.379 20.4807H100.198V19.2215H104.717C104.769 19.4552 104.795 19.7018 104.795 19.9615V19.9744C104.795 20.8745 104.596 21.6621 104.198 22.3371C103.808 23.0036 103.267 23.5228 102.574 23.8949C101.882 24.2671 101.094 24.4532 100.211 24.4532ZM108.976 24.4532C108.292 24.4532 107.69 24.2974 107.171 23.9858C106.652 23.6743 106.245 23.2545 105.95 22.7266C105.656 22.1987 105.509 21.6015 105.509 20.9351C105.509 20.2774 105.656 19.6845 105.95 19.1566C106.245 18.62 106.652 18.1959 107.171 17.8844C107.69 17.5728 108.292 17.417 108.976 17.417C109.651 17.417 110.248 17.5728 110.768 17.8844C111.287 18.1959 111.694 18.62 111.988 19.1566C112.283 19.6845 112.43 20.2774 112.43 20.9351C112.43 21.6015 112.283 22.1987 111.988 22.7266C111.694 23.2545 111.287 23.6743 110.768 23.9858C110.248 24.2974 109.651 24.4532 108.976 24.4532ZM108.976 23.168C109.339 23.168 109.677 23.0814 109.989 22.9083C110.3 22.7266 110.551 22.4713 110.742 22.1424C110.941 21.8049 111.04 21.4024 111.04 20.9351C111.04 20.4677 110.941 20.0697 110.742 19.7408C110.551 19.4032 110.3 19.148 109.989 18.9748C109.677 18.7931 109.339 18.7022 108.976 18.7022C108.612 18.7022 108.27 18.7931 107.95 18.9748C107.638 19.148 107.383 19.4032 107.184 19.7408C106.993 20.0697 106.898 20.4677 106.898 20.9351C106.898 21.4024 106.993 21.8049 107.184 22.1424C107.383 22.4713 107.638 22.7266 107.95 22.9083C108.27 23.0814 108.612 23.168 108.976 23.168ZM116.838 24.4532C116.154 24.4532 115.552 24.2974 115.033 23.9858C114.514 23.6743 114.107 23.2545 113.812 22.7266C113.518 22.1987 113.371 21.6015 113.371 20.9351C113.371 20.2774 113.518 19.6845 113.812 19.1566C114.107 18.62 114.514 18.1959 115.033 17.8844C115.552 17.5728 116.154 17.417 116.838 17.417C117.513 17.417 118.11 17.5728 118.63 17.8844C119.149 18.1959 119.556 18.62 119.85 19.1566C120.145 19.6845 120.292 20.2774 120.292 20.9351C120.292 21.6015 120.145 22.1987 119.85 22.7266C119.556 23.2545 119.149 23.6743 118.63 23.9858C118.11 24.2974 117.513 24.4532 116.838 24.4532ZM116.838 23.168C117.201 23.168 117.539 23.0814 117.851 22.9083C118.162 22.7266 118.413 22.4713 118.604 22.1424C118.803 21.8049 118.903 21.4024 118.903 20.9351C118.903 20.4677 118.803 20.0697 118.604 19.7408C118.413 19.4032 118.162 19.148 117.851 18.9748C117.539 18.7931 117.201 18.7022 116.838 18.7022C116.474 18.7022 116.132 18.7931 115.812 18.9748C115.5 19.148 115.245 19.4032 115.046 19.7408C114.855 20.0697 114.76 20.4677 114.76 20.9351C114.76 21.4024 114.855 21.8049 115.046 22.1424C115.245 22.4713 115.5 22.7266 115.812 22.9083C116.132 23.0814 116.474 23.168 116.838 23.168ZM124.57 27.2572C123.99 27.2572 123.488 27.162 123.064 26.9716C122.648 26.7899 122.311 26.5519 122.051 26.2576C121.791 25.972 121.605 25.6778 121.493 25.3749L122.791 24.8296C122.929 25.1758 123.15 25.4571 123.453 25.6735C123.765 25.8985 124.137 26.011 124.57 26.011C125.176 26.011 125.652 25.8292 125.998 25.4657C126.353 25.1023 126.531 24.5873 126.531 23.9209V23.2848H126.453C126.245 23.5964 125.955 23.8474 125.583 24.0377C125.219 24.2195 124.804 24.3104 124.336 24.3104C123.773 24.3104 123.259 24.1676 122.791 23.882C122.324 23.5964 121.947 23.1983 121.661 22.6876C121.376 22.1684 121.233 21.5626 121.233 20.8702C121.233 20.1692 121.376 19.5634 121.661 19.0527C121.947 18.5335 122.324 18.131 122.791 17.8454C123.259 17.5598 123.773 17.417 124.336 17.417C124.804 17.417 125.219 17.5122 125.583 17.7026C125.955 17.893 126.245 18.144 126.453 18.4556H126.531V17.6247H127.868V23.8949C127.868 24.6133 127.725 25.2234 127.44 25.7254C127.163 26.2273 126.778 26.6081 126.284 26.8678C125.791 27.1274 125.219 27.2572 124.57 27.2572ZM124.583 23.0381C124.929 23.0381 125.249 22.9559 125.544 22.7915C125.838 22.6184 126.076 22.3717 126.258 22.0515C126.44 21.7226 126.531 21.3289 126.531 20.8702C126.531 20.3942 126.44 19.996 126.258 19.6759C126.076 19.347 125.838 19.1003 125.544 18.9359C125.249 18.7715 124.929 18.6892 124.583 18.6892C124.236 18.6892 123.912 18.7758 123.609 18.9489C123.314 19.1133 123.077 19.3557 122.895 19.6759C122.713 19.996 122.622 20.3942 122.622 20.8702C122.622 21.3375 122.713 21.7356 122.895 22.0645C123.077 22.3847 123.314 22.6271 123.609 22.7915C123.912 22.9559 124.236 23.0381 124.583 23.0381ZM129.522 24.2455V14.9505H130.924V24.2455H129.522ZM135.539 24.4532C134.89 24.4532 134.31 24.3017 133.799 23.9988C133.289 23.6959 132.887 23.2804 132.592 22.7525C132.306 22.2246 132.163 21.6231 132.163 20.9481C132.163 20.3163 132.302 19.7321 132.579 19.1955C132.856 18.6589 133.241 18.2305 133.734 17.9103C134.237 17.5814 134.812 17.417 135.461 17.417C136.146 17.417 136.726 17.5642 137.201 17.8584C137.686 18.1526 138.055 18.5551 138.305 19.0657C138.556 19.5764 138.682 20.1518 138.682 20.7923C138.682 20.8875 138.678 20.974 138.669 21.0519C138.669 21.1298 138.665 21.1904 138.656 21.2337H133.54C133.609 21.8914 133.838 22.3847 134.228 22.7136C134.627 23.0425 135.076 23.2069 135.578 23.2069C136.029 23.2069 136.401 23.1074 136.695 22.9083C136.99 22.7006 137.224 22.4453 137.396 22.1424L138.552 22.7006C138.266 23.2199 137.877 23.6439 137.383 23.9728C136.89 24.293 136.276 24.4532 135.539 24.4532ZM135.474 18.6114C135.007 18.6114 134.609 18.7541 134.28 19.0397C133.951 19.3253 133.731 19.7062 133.618 20.1821H137.292C137.275 19.9571 137.201 19.7234 137.072 19.4811C136.942 19.2388 136.743 19.0354 136.474 18.871C136.215 18.6979 135.881 18.6114 135.474 18.6114ZM144.39 24.2455L141.897 14.9505H143.481L144.961 20.987L145.117 21.7919H145.195L145.39 20.987L147.259 14.9505H148.688L150.48 20.987L150.674 21.7789H150.752L150.908 20.987L152.388 14.9505H153.96L151.505 24.2455H149.999L148.22 18.0791L148.012 17.2093H147.935L147.714 18.0791L145.857 24.2455H144.39ZM156.567 24.4532C156.091 24.4532 155.667 24.3623 155.295 24.1805C154.923 23.9902 154.632 23.7262 154.425 23.3887C154.217 23.0511 154.113 22.666 154.113 22.2333C154.113 21.7659 154.235 21.3678 154.477 21.0389C154.728 20.7014 155.061 20.4461 155.477 20.273C155.892 20.0999 156.351 20.0134 156.853 20.0134C157.268 20.0134 157.632 20.0523 157.944 20.1302C158.264 20.2081 158.507 20.2904 158.671 20.3769V20.0264C158.671 19.5936 158.515 19.2475 158.203 18.9878C157.892 18.7282 157.489 18.5984 156.996 18.5984C156.658 18.5984 156.338 18.6763 156.035 18.832C155.732 18.9792 155.489 19.1825 155.308 19.4422L154.347 18.7022C154.632 18.3041 155.009 17.9926 155.477 17.7675C155.952 17.5339 156.472 17.417 157.035 17.417C157.996 17.417 158.736 17.655 159.255 18.131C159.775 18.5984 160.034 19.2561 160.034 20.1043V24.2455H158.671V23.4276H158.593C158.42 23.6959 158.16 23.9339 157.814 24.1416C157.468 24.3493 157.052 24.4532 156.567 24.4532ZM156.814 23.3108C157.178 23.3108 157.498 23.2242 157.775 23.0511C158.052 22.878 158.268 22.653 158.424 22.3761C158.588 22.0905 158.671 21.7833 158.671 21.4544C158.471 21.3419 158.238 21.251 157.97 21.1817C157.702 21.1039 157.416 21.0649 157.113 21.0649C156.541 21.0649 156.134 21.1817 155.892 21.4154C155.65 21.6405 155.528 21.9174 155.528 22.2463C155.528 22.5578 155.645 22.8131 155.879 23.0122C156.113 23.2113 156.424 23.3108 156.814 23.3108ZM161.591 24.2455V14.9505H162.993V24.2455H161.591ZM164.66 24.2455V14.9505H166.062V24.2455H164.66ZM170.677 24.4532C170.028 24.4532 169.448 24.3017 168.937 23.9988C168.427 23.6959 168.025 23.2804 167.73 22.7525C167.444 22.2246 167.301 21.6231 167.301 20.9481C167.301 20.3163 167.44 19.7321 167.717 19.1955C167.994 18.6589 168.379 18.2305 168.872 17.9103C169.375 17.5814 169.95 17.417 170.599 17.417C171.284 17.417 171.863 17.5642 172.339 17.8584C172.824 18.1526 173.193 18.5551 173.443 19.0657C173.694 19.5764 173.82 20.1518 173.82 20.7923C173.82 20.8875 173.816 20.974 173.807 21.0519C173.807 21.1298 173.803 21.1904 173.794 21.2337H168.678C168.747 21.8914 168.976 22.3847 169.366 22.7136C169.765 23.0425 170.214 23.2069 170.716 23.2069C171.167 23.2069 171.539 23.1074 171.833 22.9083C172.128 22.7006 172.361 22.4453 172.534 22.1424L173.69 22.7006C173.404 23.2199 173.015 23.6439 172.521 23.9728C172.028 24.293 171.414 24.4532 170.677 24.4532ZM170.612 18.6114C170.145 18.6114 169.747 18.7541 169.418 19.0397C169.089 19.3253 168.869 19.7062 168.756 20.1821H172.43C172.413 19.9571 172.339 19.7234 172.209 19.4811C172.08 19.2388 171.881 19.0354 171.612 18.871C171.352 18.6979 171.019 18.6114 170.612 18.6114ZM175.632 22.3241V18.845H174.477V17.6247H175.632V15.7553H177.035V17.6247H178.658V18.845H177.035V22.0256C177.035 22.3545 177.099 22.6054 177.229 22.7785C177.368 22.9516 177.597 23.0381 177.918 23.0381C178.082 23.0381 178.22 23.0165 178.333 22.9732C178.454 22.9299 178.575 22.8694 178.697 22.7915V24.1546C178.549 24.2151 178.393 24.2628 178.229 24.2974C178.064 24.332 177.869 24.3493 177.645 24.3493C177.03 24.3493 176.541 24.1719 176.178 23.8171C175.814 23.4536 175.632 22.9559 175.632 22.3241Z" fill="white" />
	<rect x="0.5" y="0.5" width="200" height="41" rx="7.5" stroke="#A6A6A6" />
	<defs>
		<linearGradient id="paint0_linear_461_34684" x1="28.4383" y1="25.9979" x2="14.31" y2="42.5552" gradientUnits="userSpaceOnUse">
			<stop stop-color="#4285F4" />
			<stop offset="1" stop-color="#1B74E8" />
		</linearGradient>
	</defs>
</svg>
