<svg xmlns="http://www.w3.org/2000/svg" width="75" height="82" viewBox="0 0 75 82" fill="none">
	<path d="M46.5577 1.01836C46.3996 0.951278 46.2585 1.13777 46.3648 1.27065L46.3655 1.2679L47.9777 3.29722C48.3526 3.76972 48.5475 4.01526 48.6501 4.28334C48.667 4.33166 48.6824 4.38547 48.6931 4.43513C48.8427 5.11859 48.7689 5.29309 48.3605 6.24042L47.3403 8.61046C47.2735 8.76916 47.4593 8.91079 47.5917 8.80415L49.6135 7.18569C50.0841 6.80943 50.3287 6.61389 50.5957 6.51086C50.6439 6.49393 50.6975 6.47841 50.7469 6.46769C51.4278 6.31753 51.6017 6.39159 52.5454 6.80161L54.9065 7.82562C55.0646 7.8927 55.2057 7.70621 55.0995 7.57333L53.4872 5.54394C53.1123 5.07149 52.9175 4.82595 52.8148 4.55788C52.798 4.50957 52.7825 4.45575 52.7718 4.4061C52.6222 3.72263 52.696 3.54813 53.1045 2.60081L54.1246 0.230766C54.1915 0.0720675 54.0057 -0.0695641 53.8733 0.0370809L51.8614 1.64762L51.8611 1.64788C51.0574 2.2909 50.9105 2.40845 50.2126 2.44279C50.1625 2.44456 50.1069 2.44491 50.0555 2.44047C49.7709 2.41119 49.4814 2.28684 48.9188 2.04237L46.5577 1.01836Z" fill="#F5F5F6" />
	<path fill-rule="evenodd" clip-rule="evenodd" d="M63.1438 47.5176L74.7506 31.7548C74.9324 31.5317 75.0173 31.2518 74.9971 30.9638C74.9769 30.6637 74.8395 30.3919 74.6132 30.1931V30.1972C74.3667 29.9822 72.3947 28.3962 69.1094 29.5847L69.2872 29.0249C69.4003 28.7126 69.368 28.3719 69.2023 28.0839C69.0326 27.7877 68.7416 27.5849 68.4022 27.5322C67.206 27.3456 63.2539 27.0901 61.2819 31.3289L60.1909 31.3613C57.4753 31.4465 55.0507 33.1299 54.0122 35.6529C53.5879 36.6791 53.1636 37.9569 52.7716 39.259C38.4746 34.5942 28.7802 37.823 28.0084 38.0989C21.601 39.8153 16.2862 43.887 12.1905 50.2052C1.6782 35.2645 -1.64923 20.1565 5.07581 13.7569C9.51283 9.53424 17.6474 9.8912 27.1518 14.4626C30.3805 16.0162 33.2133 18.2918 35.4439 21.1069L35.4493 21.1136C36.3873 22.2977 36.8749 22.9132 37.133 23.5771C37.1856 23.711 37.2219 23.857 37.2543 23.9949C37.6216 25.6848 37.4324 26.1237 36.4207 28.4704L34.0336 34.0018C33.8235 34.4926 34.4054 34.9429 34.8216 34.6103L39.524 30.8569C40.7036 29.9153 41.3167 29.4258 41.9782 29.1667C42.1115 29.114 42.257 29.0775 42.3944 29.045C44.0795 28.6759 44.52 28.8666 46.8597 29.8847L52.3635 32.2779C52.8525 32.4888 53.3011 31.9047 52.9697 31.4869L49.2358 26.7735C47.6437 24.7656 47.3487 24.3925 47.2638 22.6604C47.2557 22.5185 47.2557 22.3724 47.2719 22.2345C47.3485 21.5262 47.6585 20.8058 48.258 19.4125L48.2619 19.4032L50.6461 13.8785C50.8563 13.3877 50.2743 12.9375 49.8581 13.2701L45.1558 17.0235C43.9762 17.9651 43.363 18.4545 42.7015 18.7136C42.5682 18.7664 42.4267 18.8029 42.2853 18.8353C40.6018 19.2041 40.1646 19.0142 37.8268 17.9986L37.82 17.9957C35.4116 16.9492 33.0597 15.7688 30.7563 14.5032C19.3931 8.24029 9.36331 7.44525 3.96454 12.5805C-0.383571 16.7139 -1.18369 24.0598 1.70562 33.2595C4.53432 42.2605 10.5716 52.0402 18.7061 60.7896C30.5624 73.5386 44.5563 81.6633 55.2246 81.9878C55.4468 81.9959 55.665 82 55.8792 82C59.8394 82 63.0399 80.8642 65.3998 78.6171C71.3952 72.9157 70.5209 61.028 63.1438 47.5176ZM61.9735 48.7559C61.6531 49.0301 61.3139 49.282 60.9587 49.5092L54.8123 53.4519C53.8748 54.0523 52.7999 54.4254 51.6967 54.5269L28.8247 56.6686L25.5933 65.2886C35.6856 74.36 46.8128 80.1069 55.2771 80.3653C59.0918 80.4829 62.1225 79.5013 64.2885 77.4407C69.6598 72.3306 68.7586 61.3932 61.9735 48.7559ZM24.3089 64.1109L27.0345 56.8349L24.3068 57.0904H24.2301C23.8179 57.0904 23.4663 56.7781 23.4259 56.3563C23.3855 55.9101 23.7128 55.5125 24.1573 55.472L28.0407 55.1069C28.1215 55.0826 28.2104 55.0785 28.2993 55.0826L51.5431 52.9084C52.3918 52.8313 53.2161 52.5474 53.9354 52.085L54.4284 51.7686L60.6556 32.9676L60.2434 32.9798C58.1663 33.0447 56.3075 34.3387 55.5114 36.2695C54.5658 38.5775 53.5798 42.2768 52.9939 44.4875C52.5547 46.1344 52.1749 47.0078 51.8543 47.1079L51.8112 47.1201C51.6027 47.1789 51.3793 47.1511 51.1916 47.043C38.8625 42.2971 30.5178 46.5603 30.433 46.6049C30.037 46.8118 29.552 46.6617 29.3419 46.2642C29.1318 45.8667 29.2853 45.3799 29.6773 45.169C30.037 44.9783 38.422 40.6543 51.1067 45.2785C51.1182 45.2355 51.13 45.1913 51.1421 45.1459C51.1716 45.0355 51.203 44.9185 51.2355 44.7974L51.2375 44.7898C51.2994 44.5588 51.3654 44.3128 51.43 44.0697L51.453 43.9827C51.6878 43.0959 51.9825 41.9828 52.315 40.8166C38.2604 36.2248 28.6226 39.5997 28.5256 39.6362L28.4569 39.6565C22.2612 41.3098 17.1307 45.3329 13.2071 51.6189C15.205 54.3381 17.4384 57.0424 19.8901 59.6782C21.3277 61.224 22.8048 62.704 24.3089 64.1109ZM56.5944 50.3854L60.0858 48.1463C60.6839 47.765 61.2254 47.2985 61.6941 46.7631L62.1548 46.1384L67.5738 29.0736C66.1675 28.9965 63.7833 29.3616 62.571 32.4241L62.4013 32.85L56.5944 50.3854ZM65.1401 42.0725L73.1706 31.1666C72.4836 30.7894 70.8914 30.2986 68.4426 31.6737L65.1401 42.0725Z" fill="#F5F5F6" />
	<path d="M55.6843 15.325C55.5466 15.1527 55.7295 14.9109 55.9345 14.9979L58.9953 16.3254C59.7246 16.6423 60.0999 16.8035 60.4689 16.8415C60.5355 16.8472 60.6076 16.8468 60.6725 16.8445C61.5773 16.8 61.7678 16.6476 62.8096 15.814L62.81 15.8137L65.4182 13.7258C65.5898 13.5875 65.8307 13.7712 65.744 13.9769L64.4215 17.0493C63.892 18.2774 63.7963 18.5036 63.9903 19.3897C64.0041 19.454 64.0242 19.5238 64.046 19.5864C64.1791 19.934 64.4316 20.2523 64.9176 20.8647L67.0078 23.4956C67.1455 23.6679 66.9626 23.9096 66.7576 23.8227L63.6968 22.4952C62.4733 21.9636 62.2479 21.8676 61.3653 22.0623C61.3011 22.0762 61.2316 22.0963 61.1692 22.1182C60.823 22.2518 60.5059 22.5053 59.8958 22.9931L57.2748 25.0912C57.1032 25.2294 56.8624 25.0458 56.949 24.8401L58.2715 21.7676C58.801 20.5396 58.8967 20.3133 58.7027 19.4273C58.6889 19.3629 58.6689 19.2932 58.647 19.2305C58.5139 18.883 58.2613 18.5647 57.7753 17.9522L55.6852 15.3214L55.6843 15.325Z" fill="#F5F5F6" />
</svg>
