<svg width="197" height="122" viewBox="0 0 197 122" fill="none" xmlns="http://www.w3.org/2000/svg">
<path d="M14.6923 4.25183C14.6923 2.04318 16.4828 0.252716 18.6914 0.252716H192.335C194.544 0.252716 196.334 2.04318 196.334 4.25183V109.367C196.334 116.226 190.774 121.785 183.916 121.785H27.1106C20.2522 121.785 14.6923 116.226 14.6923 109.367V4.25183Z" fill="#252527" stroke="white" stroke-width="0.420959"/>
<path d="M13.9123 49.3252C14.0884 48.7687 14.8759 48.7687 15.0521 49.3252L17.5669 57.2706C17.6669 57.5868 17.9146 57.8344 18.2307 57.9345L26.1761 60.4493C26.7326 60.6254 26.7326 61.4129 26.1761 61.5891L18.2307 64.1039C17.9146 64.2039 17.6669 64.4516 17.5669 64.7677L15.0521 72.7131C14.8759 73.2696 14.0884 73.2696 13.9123 72.7131L11.3975 64.7677C11.2974 64.4516 11.0498 64.2039 10.7336 64.1039L2.78824 61.5891C2.23173 61.4129 2.23173 60.6254 2.78824 60.4493L10.7336 57.9345C11.0498 57.8344 11.2974 57.5868 11.3975 57.2706L13.9123 49.3252Z" fill="#252527" stroke="#F5F5F6" stroke-width="0.420959"/>
<path d="M61.0256 31.4442C61.3064 31.6008 61.5332 31.8196 61.706 32.1004C61.8789 32.3758 61.9653 32.6836 61.9653 33.0239C61.9653 33.2669 61.9194 33.4991 61.8276 33.7205C61.7357 33.9365 61.6088 34.1256 61.4468 34.2876C61.2848 34.4496 61.0958 34.5792 60.8798 34.6764C60.6692 34.7736 60.4423 34.8249 60.1993 34.8303H57.5909C57.5153 34.8303 57.4478 34.8033 57.3884 34.7493C57.3344 34.6899 57.3074 34.6224 57.3074 34.5468V29.0383C57.3074 28.9627 57.3344 28.8979 57.3884 28.8439C57.4478 28.7899 57.5153 28.7629 57.5909 28.7629H60.0697C60.2803 28.7629 60.4747 28.8034 60.653 28.8844C60.8366 28.96 60.9959 29.068 61.1309 29.2084C61.2713 29.3434 61.3793 29.5027 61.4549 29.6864C61.5359 29.8646 61.5764 30.059 61.5764 30.2696C61.5764 30.5072 61.5278 30.7287 61.4306 30.9339C61.3334 31.1337 61.1984 31.3038 61.0256 31.4442ZM57.8744 31.2174H60.0697C60.1993 31.2174 60.3208 31.1931 60.4342 31.1445C60.553 31.0959 60.653 31.0284 60.734 30.942C60.8204 30.8556 60.8879 30.7557 60.9365 30.6422C60.9905 30.5234 61.0175 30.3992 61.0175 30.2696C61.0175 30.14 60.9905 30.0185 60.9365 29.9051C60.8879 29.7863 60.8204 29.6864 60.734 29.6054C60.653 29.5189 60.553 29.4514 60.4342 29.4028C60.3208 29.3488 60.1993 29.3218 60.0697 29.3218H57.8744V31.2174ZM60.1588 34.2633C60.3262 34.2633 60.4855 34.2309 60.6368 34.1661C60.788 34.1013 60.9203 34.0148 61.0337 33.9068C61.1471 33.7934 61.2362 33.6611 61.301 33.5099C61.3658 33.3587 61.3982 33.1967 61.3982 33.0239C61.3982 32.8564 61.3658 32.6971 61.301 32.5459C61.2362 32.3947 61.1471 32.2624 61.0337 32.149C60.9203 32.0356 60.788 31.9465 60.6368 31.8817C60.4855 31.8169 60.3262 31.7844 60.1588 31.7844H57.8744V34.2633H60.1588ZM64.8588 30.4316C65.5609 30.4316 66.1063 30.6287 66.4952 31.023C66.884 31.4118 67.0784 31.9546 67.0784 32.6512V33.6233C67.0784 33.7151 67.0568 33.8339 67.0136 33.9797C66.9704 34.1202 66.8705 34.2579 66.7139 34.3929C66.5627 34.5225 66.3412 34.6359 66.0496 34.7331C65.758 34.8249 65.3611 34.8708 64.8588 34.8708C64.3566 34.8708 63.9596 34.8249 63.668 34.7331C63.3764 34.6359 63.1523 34.5225 62.9956 34.3929C62.8444 34.2579 62.7472 34.1202 62.704 33.9797C62.6608 33.8339 62.6392 33.7151 62.6392 33.6233C62.6392 33.2939 62.6905 33.0347 62.7931 32.8456C62.8957 32.6566 63.0334 32.5162 63.2063 32.4244C63.3791 32.3272 63.5816 32.2651 63.8138 32.2381C64.0514 32.2111 64.3053 32.1976 64.5753 32.1976H66.4709C66.3952 31.8088 66.2224 31.5117 65.9524 31.3065C65.6824 31.1013 65.3179 30.9987 64.8588 30.9987C64.3944 30.9987 64.019 31.1094 63.7328 31.3308L63.3845 30.8853C63.7679 30.5828 64.2594 30.4316 64.8588 30.4316ZM66.5114 32.7646H64.8588C64.497 32.7646 64.2054 32.7754 63.9839 32.797C63.7679 32.8132 63.6005 32.851 63.4817 32.9104C63.3683 32.9699 63.2927 33.0563 63.2549 33.1697C63.2225 33.2831 63.2063 33.4343 63.2063 33.6233C63.2063 33.7475 63.2549 33.8528 63.3521 33.9392C63.4493 34.0256 63.5762 34.0959 63.7328 34.1499C63.8894 34.2039 64.0649 34.2444 64.2594 34.2714C64.4592 34.293 64.659 34.3038 64.8588 34.3038C65.0586 34.3038 65.2557 34.293 65.4502 34.2714C65.65 34.2444 65.8282 34.2039 65.9848 34.1499C66.1414 34.0959 66.2683 34.0256 66.3655 33.9392C66.4628 33.8528 66.5114 33.7475 66.5114 33.6233V32.7646ZM71.7749 34.3038C71.5805 34.4928 71.3456 34.6359 71.0702 34.7331C70.8001 34.8249 70.4977 34.8708 70.1629 34.8708C69.4608 34.8708 68.9154 34.6764 68.5265 34.2876C68.1377 33.8987 67.9433 33.3533 67.9433 32.6512C67.9433 31.9546 68.1377 31.4118 68.5265 31.023C68.9154 30.6287 69.4608 30.4316 70.1629 30.4316C70.7407 30.4316 71.2187 30.5747 71.5967 30.861L71.2565 31.3146C70.9811 31.104 70.6165 30.9987 70.1629 30.9987C69.6228 30.9987 69.2124 31.1418 68.9316 31.428C68.6508 31.7088 68.5103 32.1166 68.5103 32.6512C68.5103 33.1913 68.6508 33.6017 68.9316 33.8825C69.2124 34.1634 69.6228 34.3038 70.1629 34.3038C70.6867 34.3038 71.0918 34.1661 71.378 33.8906L71.7749 34.3038ZM76.2804 30.5207L74.401 32.5054L76.2723 34.8303H75.5513L74.0122 32.9186L73.3236 33.6476V34.8303H72.7566V28.5199H73.3236V32.8213L75.5027 30.5207H76.2804ZM82.2967 34.8708C81.7243 34.8708 81.2787 34.6764 80.9601 34.2876C80.6415 33.8987 80.4821 33.3533 80.4821 32.6512V30.5207H81.0492V32.6512C81.0492 32.8078 81.0627 32.9807 81.0897 33.1697C81.1167 33.3587 81.1734 33.5396 81.2598 33.7124C81.3516 33.8798 81.4785 34.0202 81.6405 34.1337C81.808 34.2471 82.0267 34.3038 82.2967 34.3038C82.5667 34.3038 82.7828 34.2471 82.9448 34.1337C83.1122 34.0202 83.2391 33.8798 83.3255 33.7124C83.4173 33.5396 83.4767 33.3587 83.5037 33.1697C83.5307 32.9807 83.5442 32.8078 83.5442 32.6512V30.5207H84.1113V32.6512C84.1113 33.3533 83.952 33.8987 83.6333 34.2876C83.3147 34.6764 82.8692 34.8708 82.2967 34.8708ZM87.4242 30.4397C88.1209 30.4397 88.6636 30.6341 89.0525 31.023C89.4413 31.4118 89.6357 31.9546 89.6357 32.6512C89.6357 33.3533 89.4413 33.8987 89.0525 34.2876C88.6636 34.6764 88.1209 34.8708 87.4242 34.8708C87.0678 34.8708 86.7492 34.8195 86.4683 34.7169C86.1929 34.6089 85.9607 34.455 85.7717 34.2552V36.6125L85.2046 36.4424V32.6512C85.2046 31.9546 85.399 31.4118 85.7879 31.023C86.1767 30.6341 86.7221 30.4397 87.4242 30.4397ZM87.4242 34.3038C87.9589 34.3038 88.3666 34.1634 88.6474 33.8825C88.9336 33.6017 89.0768 33.1913 89.0768 32.6512C89.0768 32.1166 88.9336 31.7088 88.6474 31.428C88.3666 31.1418 87.9589 30.9987 87.4242 30.9987C86.8842 30.9987 86.4737 31.1418 86.1929 31.428C85.9121 31.7088 85.7717 32.1166 85.7717 32.6512C85.7717 33.1913 85.9121 33.6017 86.1929 33.8825C86.4737 34.1634 86.8842 34.3038 87.4242 34.3038ZM97.5513 30.5207H98.167L95.4775 36.6125H94.8619L95.7368 34.6359L93.9141 30.5207H94.5298L96.0365 33.9311L97.5513 30.5207ZM101.05 34.8708C100.348 34.8708 99.8023 34.6764 99.4134 34.2876C99.0246 33.8987 98.8302 33.3533 98.8302 32.6512C98.8302 31.9546 99.0246 31.4118 99.4134 31.023C99.8023 30.6287 100.348 30.4316 101.05 30.4316C101.752 30.4316 102.297 30.6287 102.686 31.023C103.075 31.4118 103.269 31.9546 103.269 32.6512C103.269 33.3533 103.075 33.8987 102.686 34.2876C102.297 34.6764 101.752 34.8708 101.05 34.8708ZM101.05 30.9987C100.51 30.9987 100.099 31.1391 99.8185 31.4199C99.5376 31.7007 99.3972 32.1112 99.3972 32.6512C99.3972 33.1913 99.5376 33.6017 99.8185 33.8825C100.099 34.1634 100.51 34.3038 101.05 34.3038C101.59 34.3038 102 34.1634 102.281 33.8825C102.562 33.6017 102.702 33.1913 102.702 32.6512C102.702 32.1112 102.562 31.7007 102.281 31.4199C102 31.1391 101.59 30.9987 101.05 30.9987ZM105.961 34.8708C105.389 34.8708 104.943 34.6764 104.625 34.2876C104.306 33.8987 104.147 33.3533 104.147 32.6512V30.5207H104.714V32.6512C104.714 32.8078 104.727 32.9807 104.754 33.1697C104.781 33.3587 104.838 33.5396 104.924 33.7124C105.016 33.8798 105.143 34.0202 105.305 34.1337C105.473 34.2471 105.691 34.3038 105.961 34.3038C106.231 34.3038 106.447 34.2471 106.609 34.1337C106.777 34.0202 106.904 33.8798 106.99 33.7124C107.082 33.5396 107.141 33.3587 107.168 33.1697C107.195 32.9807 107.209 32.8078 107.209 32.6512V30.5207H107.776V32.6512C107.776 33.3533 107.617 33.8987 107.298 34.2876C106.979 34.6764 106.534 34.8708 105.961 34.8708ZM108.837 32.6593C108.837 31.9627 109.018 31.4199 109.38 31.0311C109.741 30.6368 110.246 30.4397 110.894 30.4397V31.0068C110.408 31.0068 110.038 31.1499 109.785 31.4361C109.531 31.7169 109.404 32.1247 109.404 32.6593V34.8303H108.837V32.6593ZM118.997 34.3038C118.803 34.4928 118.568 34.6359 118.292 34.7331C118.022 34.8249 117.72 34.8708 117.385 34.8708C116.683 34.8708 116.138 34.6764 115.749 34.2876C115.36 33.8987 115.165 33.3533 115.165 32.6512C115.165 31.9546 115.36 31.4118 115.749 31.023C116.138 30.6287 116.683 30.4316 117.385 30.4316C117.963 30.4316 118.441 30.5747 118.819 30.861L118.479 31.3146C118.203 31.104 117.839 30.9987 117.385 30.9987C116.845 30.9987 116.435 31.1418 116.154 31.428C115.873 31.7088 115.733 32.1166 115.733 32.6512C115.733 33.1913 115.873 33.6017 116.154 33.8825C116.435 34.1634 116.845 34.3038 117.385 34.3038C117.909 34.3038 118.314 34.1661 118.6 33.8906L118.997 34.3038ZM121.874 34.8708C121.172 34.8708 120.627 34.6764 120.238 34.2876C119.849 33.8987 119.655 33.3533 119.655 32.6512C119.655 31.9546 119.849 31.4118 120.238 31.023C120.627 30.6287 121.172 30.4316 121.874 30.4316C122.576 30.4316 123.122 30.6287 123.511 31.023C123.9 31.4118 124.094 31.9546 124.094 32.6512C124.094 33.3533 123.9 33.8987 123.511 34.2876C123.122 34.6764 122.576 34.8708 121.874 34.8708ZM121.874 30.9987C121.334 30.9987 120.924 31.1391 120.643 31.4199C120.362 31.7007 120.222 32.1112 120.222 32.6512C120.222 33.1913 120.362 33.6017 120.643 33.8825C120.924 34.1634 121.334 34.3038 121.874 34.3038C122.414 34.3038 122.825 34.1634 123.106 33.8825C123.386 33.6017 123.527 33.1913 123.527 32.6512C123.527 32.1112 123.386 31.7007 123.106 31.4199C122.825 31.1391 122.414 30.9987 121.874 30.9987ZM125.846 34.8303H125.279V28.5199H125.846V34.8303ZM128.025 34.8303H127.458V28.5199H128.025V34.8303ZM131.387 30.4316C132.089 30.4316 132.635 30.6287 133.024 31.023C133.413 31.4118 133.607 31.9546 133.607 32.6512V32.6593C133.607 32.7403 133.577 32.8078 133.518 32.8618C133.464 32.9159 133.399 32.9429 133.324 32.9429H129.751C129.8 33.3857 129.962 33.7232 130.237 33.9554C130.513 34.1877 130.893 34.3038 131.379 34.3038C131.903 34.3038 132.306 34.1688 132.586 33.8987L132.983 34.3038C132.589 34.6818 132.054 34.8708 131.379 34.8708C130.683 34.8708 130.14 34.6764 129.751 34.2876C129.362 33.8987 129.168 33.356 129.168 32.6593V32.6512C129.168 31.9546 129.362 31.4118 129.751 31.023C130.14 30.6287 130.685 30.4316 131.387 30.4316ZM133.032 32.3758C132.983 31.9276 132.819 31.5873 132.538 31.3551C132.262 31.1175 131.879 30.9987 131.387 30.9987C130.896 30.9987 130.51 31.1175 130.229 31.3551C129.954 31.5873 129.794 31.9276 129.751 32.3758H133.032ZM138.129 34.3038C137.934 34.4928 137.699 34.6359 137.424 34.7331C137.154 34.8249 136.852 34.8708 136.517 34.8708C135.815 34.8708 135.269 34.6764 134.88 34.2876C134.492 33.8987 134.297 33.3533 134.297 32.6512C134.297 31.9546 134.492 31.4118 134.88 31.023C135.269 30.6287 135.815 30.4316 136.517 30.4316C137.095 30.4316 137.573 30.5747 137.951 30.861L137.61 31.3146C137.335 31.104 136.97 30.9987 136.517 30.9987C135.977 30.9987 135.566 31.1418 135.285 31.428C135.005 31.7088 134.864 32.1166 134.864 32.6512C134.864 33.1913 135.005 33.6017 135.285 33.8825C135.566 34.1634 135.977 34.3038 136.517 34.3038C137.041 34.3038 137.446 34.1661 137.732 33.8906L138.129 34.3038ZM141.751 30.4883V31.0554H140.56V34.8303H139.993V31.0554H138.811V30.4883H139.993V28.5199H140.56V30.4883H141.751ZM143.483 34.8303H142.916V30.5207H143.483V34.8303ZM143.483 28.5199V29.2813H142.916V28.5199H143.483ZM146.773 34.8708C146.071 34.8708 145.525 34.6764 145.136 34.2876C144.747 33.8987 144.553 33.3533 144.553 32.6512C144.553 31.9546 144.747 31.4118 145.136 31.023C145.525 30.6287 146.071 30.4316 146.773 30.4316C147.475 30.4316 148.02 30.6287 148.409 31.023C148.798 31.4118 148.992 31.9546 148.992 32.6512C148.992 33.3533 148.798 33.8987 148.409 34.2876C148.02 34.6764 147.475 34.8708 146.773 34.8708ZM146.773 30.9987C146.233 30.9987 145.822 31.1391 145.541 31.4199C145.261 31.7007 145.12 32.1112 145.12 32.6512C145.12 33.1913 145.261 33.6017 145.541 33.8825C145.822 34.1634 146.233 34.3038 146.773 34.3038C147.313 34.3038 147.723 34.1634 148.004 33.8825C148.285 33.6017 148.425 33.1913 148.425 32.6512C148.425 32.1112 148.285 31.7007 148.004 31.4199C147.723 31.1391 147.313 30.9987 146.773 30.9987ZM153.936 34.8303H153.369V32.6593C153.369 32.1247 153.25 31.7169 153.013 31.4361C152.775 31.1499 152.429 31.0068 151.976 31.0068C151.522 31.0068 151.177 31.1499 150.939 31.4361C150.701 31.7169 150.582 32.1247 150.582 32.6593V34.8303H150.015V32.6593C150.015 31.9627 150.186 31.4199 150.526 31.0311C150.871 30.6368 151.355 30.4397 151.976 30.4397C152.591 30.4397 153.072 30.6368 153.418 31.0311C153.763 31.4199 153.936 31.9627 153.936 32.6593V34.8303Z" fill="#92D7FE"/>
<path d="M87.3507 61.5381L85.4231 54.5103H86.3267L87.8427 60.5341L89.5594 54.5103H90.5032L92.1798 60.5542L93.7159 54.5103H94.6194L92.6517 61.5381H91.6878L90.0112 55.7251L88.2944 61.5381H87.3507ZM96.7272 61.6586C96.3189 61.6586 95.9776 61.5883 95.7032 61.4477C95.4287 61.3005 95.2246 61.1097 95.0907 60.8755C94.9569 60.6345 94.8899 60.3735 94.8899 60.0924C94.8899 59.751 94.977 59.4632 95.151 59.229C95.3317 58.988 95.5827 58.8073 95.904 58.6868C96.2319 58.5597 96.6168 58.4961 97.0585 58.4961H98.3938C98.3938 58.1815 98.3436 57.9205 98.2432 57.713C98.1495 57.4988 98.0089 57.3382 97.8215 57.2311C97.6408 57.124 97.4132 57.0704 97.1388 57.0704C96.8176 57.0704 96.5398 57.1508 96.3055 57.3114C96.0713 57.472 95.9274 57.7096 95.8738 58.0242H95.0104C95.0506 57.6628 95.1711 57.3616 95.3719 57.1206C95.5793 56.873 95.8404 56.6856 96.1549 56.5584C96.4695 56.4246 96.7975 56.3576 97.1388 56.3576C97.6073 56.3576 97.9955 56.4446 98.3034 56.6187C98.618 56.786 98.8523 57.0236 99.0062 57.3315C99.1601 57.6327 99.2371 57.9907 99.2371 58.4057V61.5381H98.4841L98.4339 60.6446C98.367 60.7851 98.28 60.919 98.1729 61.0461C98.0725 61.1666 97.952 61.2737 97.8115 61.3674C97.6709 61.4544 97.5103 61.5247 97.3296 61.5782C97.1556 61.6318 96.9548 61.6586 96.7272 61.6586ZM96.8577 60.9457C97.092 60.9457 97.3028 60.8989 97.4902 60.8052C97.6843 60.7048 97.8483 60.5709 97.9822 60.4036C98.116 60.2296 98.2164 60.0388 98.2833 59.8313C98.357 59.6239 98.3938 59.4063 98.3938 59.1788V59.1486H97.1288C96.8008 59.1486 96.5364 59.1888 96.3357 59.2691C96.1349 59.3427 95.991 59.4498 95.904 59.5904C95.8169 59.7243 95.7734 59.8782 95.7734 60.0522C95.7734 60.2329 95.8136 60.3902 95.8939 60.5241C95.9809 60.6579 96.1047 60.7617 96.2654 60.8353C96.4327 60.9089 96.6302 60.9457 96.8577 60.9457ZM100.542 61.5381V54.3095H101.385V61.5381H100.542ZM102.777 61.5381V54.3095H103.62V61.5381H102.777ZM107.231 61.6586C106.756 61.6586 106.334 61.5481 105.966 61.3273C105.605 61.1064 105.32 60.7985 105.113 60.4036C104.905 60.002 104.802 59.5368 104.802 59.0081C104.802 58.4726 104.902 58.0075 105.103 57.6126C105.31 57.2177 105.598 56.9098 105.966 56.6889C106.341 56.4681 106.769 56.3576 107.251 56.3576C107.747 56.3576 108.165 56.4681 108.506 56.6889C108.854 56.9098 109.119 57.201 109.299 57.5624C109.487 57.9171 109.581 58.3087 109.581 58.737C109.581 58.804 109.581 58.8742 109.581 58.9479C109.581 59.0215 109.577 59.1051 109.571 59.1988H105.434V58.5463H108.757C108.737 58.0844 108.583 57.723 108.295 57.462C108.014 57.201 107.66 57.0704 107.231 57.0704C106.943 57.0704 106.676 57.1374 106.428 57.2712C106.187 57.3984 105.993 57.5892 105.846 57.8435C105.699 58.0911 105.625 58.4024 105.625 58.7772V59.0583C105.625 59.4733 105.699 59.8213 105.846 60.1024C106 60.3835 106.197 60.5944 106.438 60.7349C106.686 60.8755 106.95 60.9457 107.231 60.9457C107.586 60.9457 107.877 60.8688 108.105 60.7148C108.339 60.5542 108.506 60.34 108.607 60.0723H109.44C109.36 60.3735 109.219 60.6446 109.018 60.8855C108.818 61.1265 108.567 61.3172 108.265 61.4578C107.971 61.5916 107.626 61.6586 107.231 61.6586ZM112.54 61.5381C112.239 61.5381 111.978 61.4912 111.757 61.3975C111.536 61.3038 111.365 61.1465 111.245 60.9257C111.131 60.6981 111.074 60.3936 111.074 60.0121V57.1909H110.191V56.4781H111.074L111.184 55.2533H111.917V56.4781H113.383V57.1909H111.917V60.0121C111.917 60.3266 111.981 60.5408 112.108 60.6546C112.235 60.7617 112.459 60.8152 112.781 60.8152H113.323V61.5381H112.54Z" fill="#F5F5F6"/>
<path d="M77.403 57.1514H64.1952M64.1952 59.793H66.5374C66.8941 59.793 67.0725 59.793 67.245 59.8237C67.3981 59.851 67.5474 59.8962 67.6899 59.9585C67.8505 60.0285 67.9989 60.1275 68.2957 60.3254L68.6798 60.5814C68.9766 60.7793 69.125 60.8782 69.2856 60.9483C69.4281 61.0105 69.5774 61.0557 69.7305 61.083C69.903 61.1138 70.0814 61.1138 70.4381 61.1138H71.1601C71.5169 61.1138 71.6952 61.1138 71.8677 61.083C72.0208 61.0557 72.1701 61.0105 72.3127 60.9483C72.4732 60.8782 72.6216 60.7793 72.9185 60.5814L73.3025 60.3254C73.5993 60.1275 73.7477 60.0285 73.9083 59.9585C74.0508 59.8962 74.2001 59.851 74.3532 59.8237C74.5257 59.793 74.7041 59.793 75.0608 59.793H77.403M64.1952 56.2929L64.1952 62.6327C64.1952 63.3724 64.1952 63.7422 64.3392 64.0247C64.4658 64.2733 64.6679 64.4753 64.9164 64.6019C65.1989 64.7459 65.5688 64.7459 66.3085 64.7459L75.2897 64.7459C76.0295 64.7459 76.3993 64.7459 76.6818 64.6019C76.9304 64.4753 77.1324 64.2733 77.259 64.0247C77.403 63.7422 77.403 63.3724 77.403 62.6327V56.2929C77.403 55.5532 77.403 55.1834 77.259 54.9008C77.1324 54.6523 76.9304 54.4503 76.6818 54.3236C76.3993 54.1797 76.0295 54.1797 75.2897 54.1797L66.3085 54.1797C65.5688 54.1797 65.1989 54.1797 64.9164 54.3236C64.6679 54.4503 64.4658 54.6523 64.3392 54.9008C64.1952 55.1834 64.1952 55.5532 64.1952 56.2929Z" stroke="#F5F5F6" stroke-width="0.660389" stroke-linecap="round" stroke-linejoin="round"/>
<path d="M89.2489 89.7594C88.5662 89.7594 87.9739 89.6088 87.4719 89.3076C86.9766 88.9997 86.5951 88.5747 86.3274 88.0326C86.0596 87.4837 85.9258 86.8479 85.9258 86.125C85.9258 85.4022 86.0596 84.7697 86.3274 84.2275C86.5951 83.6787 86.9766 83.2537 87.4719 82.9525C87.9739 82.6446 88.5662 82.4907 89.2489 82.4907C90.0521 82.4907 90.7047 82.6814 91.2066 83.0629C91.7086 83.4445 92.0299 83.9832 92.1704 84.6793H91.2368C91.1297 84.2443 90.9121 83.8962 90.5842 83.6352C90.2562 83.3675 89.8111 83.2336 89.2489 83.2336C88.7469 83.2336 88.3119 83.3508 87.9438 83.585C87.5756 83.8126 87.2912 84.1439 87.0904 84.5789C86.8896 85.0073 86.7892 85.5227 86.7892 86.125C86.7892 86.7274 86.8896 87.2461 87.0904 87.6812C87.2912 88.1095 87.5756 88.4409 87.9438 88.6751C88.3119 88.9027 88.7469 89.0165 89.2489 89.0165C89.8111 89.0165 90.2562 88.8893 90.5842 88.635C90.9121 88.3739 91.1297 88.0292 91.2368 87.6009H92.1704C92.0299 88.2769 91.7086 88.8056 91.2066 89.1871C90.7047 89.5686 90.0521 89.7594 89.2489 89.7594ZM95.602 89.7594C95.1334 89.7594 94.7118 89.6523 94.337 89.4381C93.9622 89.2173 93.6677 88.9094 93.4535 88.5145C93.2393 88.1129 93.1322 87.6477 93.1322 87.119C93.1322 86.5768 93.2393 86.1083 93.4535 85.7134C93.6743 85.3118 93.9722 85.0039 94.347 84.7898C94.7285 84.5689 95.1535 84.4585 95.622 84.4585C96.1039 84.4585 96.529 84.5689 96.8971 84.7898C97.2719 85.0039 97.5664 85.3118 97.7806 85.7134C98.0014 86.1083 98.1119 86.5735 98.1119 87.1089C98.1119 87.6444 98.0014 88.1129 97.7806 88.5145C97.5597 88.9094 97.2619 89.2173 96.887 89.4381C96.5122 89.6523 96.0839 89.7594 95.602 89.7594ZM95.612 89.0365C95.8998 89.0365 96.1675 88.9663 96.4152 88.8257C96.6628 88.6785 96.8636 88.4609 97.0176 88.1731C97.1715 87.8853 97.2485 87.5306 97.2485 87.1089C97.2485 86.6806 97.1715 86.3258 97.0176 86.0447C96.8703 85.7569 96.6729 85.5427 96.4252 85.4022C96.1843 85.2549 95.9165 85.1813 95.622 85.1813C95.3409 85.1813 95.0732 85.2549 94.8189 85.4022C94.5712 85.5427 94.3704 85.7569 94.2165 86.0447C94.0692 86.3258 93.9956 86.6806 93.9956 87.1089C93.9956 87.5306 94.0692 87.8853 94.2165 88.1731C94.3704 88.4609 94.5679 88.6785 94.8088 88.8257C95.0565 88.9663 95.3242 89.0365 95.612 89.0365ZM99.2943 91.8476V84.5789H100.057L100.128 85.4022C100.235 85.2416 100.372 85.091 100.539 84.9504C100.707 84.8032 100.907 84.686 101.142 84.599C101.376 84.5053 101.644 84.4585 101.945 84.4585C102.44 84.4585 102.868 84.5756 103.23 84.8098C103.598 85.0441 103.882 85.362 104.083 85.7636C104.291 86.1585 104.394 86.6103 104.394 87.119C104.394 87.6276 104.291 88.0828 104.083 88.4844C103.882 88.8792 103.598 89.1905 103.23 89.418C102.862 89.6456 102.43 89.7594 101.935 89.7594C101.526 89.7594 101.165 89.6757 100.85 89.5084C100.543 89.3411 100.305 89.1068 100.138 88.8056V91.8476H99.2943ZM101.844 89.0265C102.172 89.0265 102.463 88.9462 102.718 88.7855C102.972 88.6249 103.17 88.404 103.31 88.1229C103.457 87.8351 103.531 87.4971 103.531 87.1089C103.531 86.7274 103.457 86.3928 103.31 86.105C103.17 85.8172 102.972 85.5929 102.718 85.4323C102.463 85.2717 102.172 85.1914 101.844 85.1914C101.51 85.1914 101.215 85.2717 100.961 85.4323C100.707 85.5929 100.509 85.8172 100.369 86.105C100.228 86.3928 100.158 86.7274 100.158 87.1089C100.158 87.4971 100.228 87.8351 100.369 88.1229C100.509 88.404 100.707 88.6249 100.961 88.7855C101.215 88.9462 101.51 89.0265 101.844 89.0265ZM105.729 91.8476L106.964 89.0767H106.673L104.685 84.5789H105.599L107.245 88.4442L108.972 84.5789H109.845L106.613 91.8476H105.729ZM109.932 90.5927L112.452 81.9686H113.285L110.765 90.5927H109.932ZM114.904 89.6389V82.6112H117.193C117.749 82.6112 118.204 82.7049 118.558 82.8923C118.92 83.073 119.184 83.3173 119.352 83.6252C119.526 83.933 119.613 84.2844 119.613 84.6793C119.613 85.0608 119.526 85.4089 119.352 85.7235C119.184 86.0313 118.923 86.279 118.568 86.4664C118.214 86.6538 117.755 86.7475 117.193 86.7475H115.747V89.6389H114.904ZM115.747 86.0347H117.183C117.745 86.0347 118.147 85.9109 118.388 85.6632C118.629 85.4156 118.749 85.0876 118.749 84.6793C118.749 84.2443 118.629 83.9096 118.388 83.6754C118.147 83.4344 117.745 83.3139 117.183 83.3139H115.747V86.0347ZM122.089 89.7594C121.68 89.7594 121.339 89.6891 121.065 89.5486C120.79 89.4013 120.586 89.2106 120.452 88.9763C120.318 88.7353 120.251 88.4743 120.251 88.1932C120.251 87.8519 120.339 87.5641 120.513 87.3298C120.693 87.0888 120.944 86.9081 121.265 86.7877C121.593 86.6605 121.978 86.5969 122.42 86.5969H123.755C123.755 86.2823 123.705 86.0213 123.605 85.8138C123.511 85.5996 123.37 85.439 123.183 85.3319C123.002 85.2248 122.775 85.1713 122.5 85.1713C122.179 85.1713 121.901 85.2516 121.667 85.4122C121.433 85.5729 121.289 85.8105 121.235 86.125H120.372C120.412 85.7636 120.533 85.4624 120.733 85.2215C120.941 84.9738 121.202 84.7864 121.516 84.6593C121.831 84.5254 122.159 84.4585 122.5 84.4585C122.969 84.4585 123.357 84.5455 123.665 84.7195C123.98 84.8868 124.214 85.1244 124.368 85.4323C124.522 85.7335 124.599 86.0916 124.599 86.5065V89.6389H123.846L123.795 88.7454C123.729 88.8859 123.642 89.0198 123.534 89.147C123.434 89.2674 123.314 89.3745 123.173 89.4682C123.032 89.5553 122.872 89.6255 122.691 89.6791C122.517 89.7326 122.316 89.7594 122.089 89.7594ZM122.219 89.0466C122.454 89.0466 122.664 88.9997 122.852 88.906C123.046 88.8056 123.21 88.6718 123.344 88.5044C123.478 88.3304 123.578 88.1397 123.645 87.9322C123.719 87.7247 123.755 87.5072 123.755 87.2796V87.2495H122.49C122.162 87.2495 121.898 87.2896 121.697 87.37C121.496 87.4436 121.353 87.5507 121.265 87.6912C121.178 87.8251 121.135 87.979 121.135 88.153C121.135 88.3338 121.175 88.491 121.255 88.6249C121.342 88.7588 121.466 88.8625 121.627 88.9361C121.794 89.0098 121.992 89.0466 122.219 89.0466ZM127.811 89.7594C127.389 89.7594 127.021 89.6891 126.706 89.5486C126.399 89.408 126.151 89.2139 125.964 88.9663C125.783 88.7119 125.672 88.4141 125.632 88.0727H126.496C126.529 88.2468 126.599 88.4074 126.706 88.5546C126.814 88.7019 126.957 88.8224 127.138 88.9161C127.326 89.0031 127.553 89.0466 127.821 89.0466C128.055 89.0466 128.249 89.0131 128.403 88.9462C128.557 88.8726 128.671 88.7755 128.744 88.655C128.825 88.5346 128.865 88.404 128.865 88.2635C128.865 88.056 128.815 87.8987 128.714 87.7916C128.621 87.6845 128.48 87.6009 128.293 87.5406C128.105 87.4737 127.878 87.4168 127.61 87.37C127.389 87.3298 127.172 87.2763 126.957 87.2093C126.743 87.1424 126.552 87.0554 126.385 86.9483C126.218 86.8345 126.084 86.6973 125.984 86.5367C125.89 86.376 125.843 86.1786 125.843 85.9443C125.843 85.6565 125.917 85.4022 126.064 85.1813C126.211 84.9537 126.422 84.7764 126.696 84.6492C126.978 84.522 127.302 84.4585 127.67 84.4585C128.212 84.4585 128.651 84.589 128.985 84.85C129.32 85.111 129.518 85.4892 129.578 85.9845H128.744C128.711 85.7301 128.601 85.5327 128.413 85.3921C128.232 85.2449 127.981 85.1713 127.66 85.1713C127.346 85.1713 127.105 85.2349 126.937 85.362C126.777 85.4892 126.696 85.6565 126.696 85.864C126.696 85.9979 126.74 86.1183 126.827 86.2254C126.921 86.3258 127.054 86.4128 127.228 86.4865C127.409 86.5601 127.63 86.6203 127.891 86.6672C128.226 86.7274 128.53 86.8077 128.805 86.9081C129.079 87.0085 129.3 87.1591 129.467 87.3599C129.641 87.554 129.728 87.8318 129.728 88.1932C129.728 88.5078 129.648 88.7822 129.487 89.0165C129.333 89.2507 129.113 89.4348 128.825 89.5686C128.537 89.6958 128.199 89.7594 127.811 89.7594ZM132.705 89.6389C132.404 89.6389 132.143 89.5921 131.922 89.4984C131.701 89.4047 131.53 89.2474 131.41 89.0265C131.296 88.7989 131.239 88.4944 131.239 88.1129V85.2917H130.356V84.5789H131.239L131.35 83.3541H132.083V84.5789H133.548V85.2917H132.083V88.1129C132.083 88.4275 132.146 88.6416 132.273 88.7554C132.401 88.8625 132.625 88.9161 132.946 88.9161H133.488V89.6389H132.705ZM136.73 89.7594C136.255 89.7594 135.833 89.649 135.465 89.4281C135.104 89.2072 134.819 88.8993 134.612 88.5044C134.404 88.1028 134.301 87.6377 134.301 87.1089C134.301 86.5735 134.401 86.1083 134.602 85.7134C134.809 85.3185 135.097 85.0106 135.465 84.7898C135.84 84.5689 136.268 84.4585 136.75 84.4585C137.246 84.4585 137.664 84.5689 138.005 84.7898C138.353 85.0106 138.618 85.3018 138.798 85.6632C138.986 86.0179 139.08 86.4095 139.08 86.8379C139.08 86.9048 139.08 86.9751 139.08 87.0487C139.08 87.1223 139.076 87.206 139.069 87.2997H134.933V86.6471H138.256C138.236 86.1853 138.082 85.8238 137.794 85.5628C137.513 85.3018 137.159 85.1713 136.73 85.1713C136.442 85.1713 136.175 85.2382 135.927 85.3721C135.686 85.4992 135.492 85.69 135.345 85.9443C135.198 86.192 135.124 86.5032 135.124 86.878V87.1591C135.124 87.5741 135.198 87.9221 135.345 88.2032C135.499 88.4844 135.696 88.6952 135.937 88.8357C136.185 88.9763 136.449 89.0466 136.73 89.0466C137.085 89.0466 137.376 88.9696 137.604 88.8157C137.838 88.655 138.005 88.4409 138.106 88.1731H138.939C138.859 88.4743 138.718 88.7454 138.517 88.9863C138.317 89.2273 138.066 89.418 137.764 89.5586C137.47 89.6925 137.125 89.7594 136.73 89.7594Z" fill="#F5F5F6"/>
<path d="M67.9203 84.1158V82.3497C67.9203 81.6432 67.9203 81.29 68.0578 81.0201C68.1788 80.7827 68.3717 80.5897 68.6091 80.4688C68.879 80.3313 69.2322 80.3313 69.9387 80.3313H74.7325C75.439 80.3313 75.7923 80.3313 76.0621 80.4688C76.2995 80.5897 76.4925 80.7827 76.6134 81.0201C76.7509 81.29 76.7509 81.6432 76.7509 82.3497V87.1435C76.7509 87.85 76.7509 88.2033 76.6134 88.4731C76.4925 88.7105 76.2995 88.9035 76.0621 89.0244C75.7923 89.1619 75.439 89.1619 74.7325 89.1619H72.9664M66.1542 92.9465H70.948C71.6545 92.9465 72.0077 92.9465 72.2776 92.809C72.5149 92.688 72.7079 92.495 72.8289 92.2577C72.9664 91.9878 72.9664 91.6345 72.9664 90.928V86.1343C72.9664 85.4278 72.9664 85.0745 72.8289 84.8046C72.7079 84.5673 72.5149 84.3743 72.2776 84.2533C72.0077 84.1158 71.6545 84.1158 70.948 84.1158H66.1542C65.4477 84.1158 65.0944 84.1158 64.8246 84.2533C64.5872 84.3743 64.3942 84.5673 64.2733 84.8046C64.1358 85.0745 64.1358 85.4278 64.1358 86.1343V90.928C64.1358 91.6345 64.1358 91.9878 64.2733 92.2577C64.3942 92.495 64.5872 92.688 64.8246 92.809C65.0944 92.9465 65.4477 92.9465 66.1542 92.9465Z" stroke="#F5F5F6" stroke-width="0.630758" stroke-linecap="round" stroke-linejoin="round"/>
</svg>
