<svg fill="none" height="123" viewBox="0 0 198 123" width="198" xmlns="http://www.w3.org/2000/svg" xmlns:xlink="http://www.w3.org/1999/xlink">
	<clipPath id="a">
		<path d="m32.3246 16.02h6.77675v6.77675h-6.77675z" />
	</clipPath>
	<clipPath id="b">
		<path d="m94.0961 50.1846h24v24h-24z" />
	</clipPath>
	<path d="m15.2752 4.73279c0-2.20865 1.7904-3.999117 3.9991-3.999117h173.6437c2.208 0 3.999 1.790467 3.999 3.999117v105.11521c0 6.858-5.56 12.418-12.418 12.418h-156.8055c-6.8585 0-12.4183-5.56-12.4183-12.418z" fill="#252527" stroke="#fff" stroke-width=".420959" />
	<rect fill="#252527" height="25.0086" rx="3.78952" stroke="#f5f5f6" stroke-width=".420959" width="168.201" x="22.3257" y="6.90433" />
	<path d="m48.76 22.9087v-6.4348h.7507v2.7616c.149-.2741.3605-.4856.6345-.6345.2741-.1549.572-.2324.8938-.2324.5124 0 .9235.1609 1.2333.4826.3098.3158.4647.8044.4647 1.4657v2.5918h-.7418v-2.5114c0-.9235-.3723-1.3852-1.1171-1.3852-.3873 0-.712.14-.9742.42-.2621.2741-.3932.6673-.3932 1.1797v2.2969zm6.8661 0c-.4051 0-.7239-.0983-.9563-.2949-.2323-.1967-.3485-.5512-.3485-1.0636v-2.4398h-.7686v-.6345h.7686l.0983-1.0636h.6524v1.0636h1.3048v.6345h-1.3048v2.4398c0 .2801.0566.4707.1698.572.1132.0953.3128.143.5988.143h.4647v.6435zm3.4562 0c-.4052 0-.7239-.0983-.9563-.2949-.2324-.1967-.3486-.5512-.3486-1.0636v-2.4398h-.7685v-.6345h.7685l.0984-1.0636h.6524v1.0636h1.3048v.6345h-1.3048v2.4398c0 .2801.0566.4707.1698.572.1132.0953.3128.143.5988.143h.4647v.6435zm1.7045 1.9662v-6.399h.6792l.0715.7328c.143-.2145.3456-.4081.6077-.5809.2681-.1728.6077-.2592 1.0189-.2592.4409 0 .8252.1013 1.1528.3039.3277.2025.581.4796.7597.8311.1847.3516.2771.7507.2771 1.1976s-.0924.8461-.2771 1.1976c-.1787.3456-.4349.6196-.7686.8222-.3277.1966-.712.2949-1.1529.2949-.3634 0-.6881-.0744-.9741-.2234-.2801-.1489-.4946-.3575-.6435-.6256v2.708zm2.2879-2.5114c.2979 0 .56-.0685.7865-.2055.2264-.143.4051-.3396.5362-.5899.1311-.2502.1966-.5422.1966-.8758 0-.3337-.0655-.6256-.1966-.8759-.1311-.2502-.3098-.4439-.5362-.5809-.2265-.143-.4886-.2145-.7865-.2145s-.5601.0715-.7865.2145c-.2264.137-.4051.3307-.5362.5809-.1311.2503-.1966.5422-.1966.8759 0 .3336.0655.6256.1966.8758.1311.2503.3098.4469.5362.5899.2264.137.4886.2055.7865.2055zm5.022.6524c-.5302 0-.9711-.134-1.3227-.4021-.3515-.2682-.557-.6316-.6166-1.0904h.7686c.0476.2324.1698.435.3664.6078.2026.1668.4737.2502.8133.2502.3158 0 .5481-.0655.6971-.1966.1489-.1371.2234-.2979.2234-.4826 0-.2681-.0983-.4469-.2949-.5363-.1907-.0893-.4618-.1698-.8133-.2413-.2383-.0476-.4766-.1161-.715-.2055-.2383-.0894-.4379-.2145-.5988-.3754-.1608-.1668-.2413-.3843-.2413-.6524 0-.3873.143-.7031.429-.9473.292-.2503.6852-.3754 1.1797-.3754.4707 0 .855.1192 1.1529.3575.3039.2324.4796.566.5273 1.001h-.7418c-.0298-.2265-.1281-.4022-.2949-.5273-.1609-.1311-.3783-.1967-.6524-.1967-.2681 0-.4767.0566-.6256.1699-.143.1132-.2145.2621-.2145.4468 0 .1788.0923.3188.277.4201.1907.1012.4469.1876.7686.2591.2741.0596.5333.1341.7776.2235.2502.0834.4528.2115.6077.3843.1609.1668.2413.4111.2413.7328.006.3992-.146.7299-.4558.992-.3039.2562-.7179.3843-1.2423.3843zm3.0297-.0625c-.1489 0-.274-.0477-.3753-.143-.0953-.1013-.143-.2234-.143-.3664s.0477-.2622.143-.3575c.1013-.1013.2264-.152.3753-.152.143 0 .2622.0507.3575.152.1013.0953.152.2145.152.3575s-.0507.2651-.152.3664c-.0953.0953-.2145.143-.3575.143zm0-3.566c-.1489 0-.274-.0476-.3753-.143-.0953-.1012-.143-.2234-.143-.3664s.0477-.2621.143-.3575c.1013-.1013.2264-.1519.3753-.1519.143 0 .2622.0506.3575.1519.1013.0954.152.2145.152.3575s-.0507.2652-.152.3664c-.0953.0954-.2145.143-.3575.143zm1.1549 4.3703 2.2432-7.677h.7418l-2.2432 7.677zm2.4176 0 2.2432-7.677h.7418l-2.2432 7.677zm4.7512-.849-1.2959-4.4328h.7507l.9384 3.4765 1.0368-3.4765h.849l1.0456 3.4765.9295-3.4765h.7597l-1.2959 4.4328h-.7686l-1.0904-3.6553-1.0903 3.6553zm6.7378 0-1.2959-4.4328h.7507l.9384 3.4765 1.0367-3.4765h.8491l1.0456 3.4765.9295-3.4765h.7597l-1.2959 4.4328h-.7686l-1.0904-3.6553-1.0903 3.6553zm6.7378 0-1.2959-4.4328h.7507l.9384 3.4765 1.0367-3.4765h.8491l1.0456 3.4765.9295-3.4765h.7596l-1.2958 4.4328h-.7686l-1.0904-3.6553-1.0903 3.6553zm5.7978.0447c-.149 0-.2741-.0477-.3754-.143-.0953-.1013-.143-.2234-.143-.3664s.0477-.2622.143-.3575c.1013-.1013.2264-.152.3754-.152.143 0 .2621.0507.3575.152.1013.0953.1519.2145.1519.3575s-.0506.2651-.1519.3664c-.0954.0953-.2145.143-.3575.143zm1.9775-5.4606c-.143 0-.265-.0477-.366-.143-.101-.1013-.152-.2264-.152-.3754 0-.143.051-.2622.152-.3575s.223-.143.366-.143.263.0477.358.143c.101.0953.152.2145.152.3575 0 .149-.051.2741-.152.3754-.095.0953-.215.143-.358.143zm-1.3581 7.3821v-.6435h.3486c.2204 0 .3785-.0477.4735-.143.101-.0894.152-.2443.152-.4647v-5.1478h.751v5.1656c0 .429-.107.7418-.322.9384-.214.1967-.527.295-.9383.295zm4.6491-1.859c-.524 0-.941-.1579-1.251-.4736-.31-.3218-.465-.8133-.465-1.4747v-2.5917h.751v2.5113c0 .9235.378 1.3853 1.135 1.3853.387 0 .706-.1371.956-.4111.256-.2801.384-.6763.384-1.1887v-2.2968h.751v4.4328h-.679l-.054-.7954c-.137.28-.342.5005-.616.6613-.269.1609-.572.2413-.912.2413zm5.865 0c-.363 0-.688-.0744-.974-.2234-.28-.1489-.495-.3575-.644-.6256l-.071.7418h-.679v-6.4348h.75v2.7348c.143-.2145.346-.4081.608-.5809.268-.1728.608-.2592 1.019-.2592.441 0 .825.1013 1.153.3039.328.2025.581.4796.76.8311.184.3516.277.7507.277 1.1976s-.093.8461-.277 1.1976c-.179.3456-.435.6196-.769.8222-.328.1966-.712.2949-1.153.2949zm-.08-.6524c.298 0 .56-.0685.786-.2055.227-.143.405-.3396.536-.5899.131-.2502.197-.5422.197-.8758 0-.3337-.066-.6256-.197-.8759-.131-.2502-.309-.4439-.536-.5809-.226-.143-.488-.2145-.786-.2145s-.56.0715-.787.2145c-.226.137-.405.3307-.536.5809-.131.2503-.197.5422-.197.8759 0 .3336.066.6256.197.8758.131.2503.31.4469.536.5899.227.137.489.2055.787.2055zm3.324.5452v-4.4328h.679l.054.6434c.143-.2383.333-.423.572-.5541.238-.1311.506-.1966.804-.1966.351 0 .652.0715.903.2145.256.143.452.3605.589.6524.155-.2681.367-.4796.635-.6345.274-.1549.569-.2324.885-.2324.53 0 .953.1609 1.269.4826.316.3158.473.8044.473 1.4657v2.5918h-.741v-2.5114c0-.4587-.093-.8043-.277-1.0367-.185-.2323-.45-.3485-.796-.3485-.357 0-.655.14-.894.42-.232.2741-.348.6673-.348 1.1797v2.2969h-.751v-2.5114c0-.4587-.092-.8043-.277-1.0367-.185-.2323-.45-.3485-.795-.3485-.352 0-.647.14-.885.42-.232.2741-.349.6673-.349 1.1797v2.2969zm10.014.1072c-.417 0-.792-.0953-1.126-.286-.334-.1906-.599-.4587-.795-.8043-.191-.3515-.286-.7626-.286-1.2333s.098-.8789.295-1.2244c.196-.3516.461-.6226.795-.8133.34-.1907.718-.286 1.135-.286s.792.0953 1.126.286.596.4617.786.8133c.197.3455.295.7537.295 1.2244s-.098.8818-.295 1.2333c-.196.3456-.464.6137-.804.8043-.334.1907-.709.286-1.126.286zm0-.6434c.256 0 .495-.0626.715-.1877s.399-.3128.536-.5631c.137-.2502.206-.56.206-.9294s-.069-.6793-.206-.9295c-.131-.2502-.307-.4379-.527-.563-.22-.1252-.456-.1877-.706-.1877-.256 0-.495.0625-.715.1877-.22.1251-.399.3128-.536.563s-.206.5601-.206.9295.069.6792.206.9294c.137.2503.313.438.527.5631.22.1251.456.1877.706.1877zm3.761-4.8797c-.143 0-.265-.0477-.367-.143-.101-.1013-.152-.2264-.152-.3754 0-.143.051-.2622.152-.3575.102-.0953.224-.143.367-.143s.262.0477.357.143c.102.0953.152.2145.152.3575 0 .149-.05.2741-.152.3754-.095.0953-.214.143-.357.143zm-1.359 7.3821v-.6435h.349c.22 0 .378-.0477.474-.143.101-.0894.151-.2443.151-.4647v-5.1478h.751v5.1656c0 .429-.107.7418-.322.9384-.214.1967-.527.295-.938.295zm3.488-7.3821c-.149 0-.275-.0477-.376-.143-.095-.1013-.143-.2264-.143-.3754 0-.143.048-.2622.143-.3575.101-.0953.227-.143.376-.143.143 0 .265.0477.366.143s.152.2145.152.3575c0 .149-.051.2741-.152.3754-.101.0953-.223.143-.366.143zm-.376 5.4159v-4.4328h.751v4.4328zm2.317.0447c-.149 0-.274-.0477-.375-.143-.095-.1013-.143-.2234-.143-.3664s.048-.2622.143-.3575c.101-.1013.226-.152.375-.152.143 0 .262.0507.358.152.101.0953.152.2145.152.3575s-.051.2651-.152.3664c-.096.0953-.215.143-.358.143zm5.124 1.9215v-2.6991c-.143.2145-.349.4082-.617.581-.268.1727-.604.2591-1.01.2591-.44 0-.828-.1013-1.161-.3038-.328-.2026-.584-.4797-.769-.8312-.179-.3515-.268-.7507-.268-1.1976 0-.4468.092-.843.277-1.1886.185-.3515.441-.6256.769-.8222.327-.2026.714-.3039 1.161-.3039.364 0 .686.0745.966.2234.28.149.497.3575.652.6256l.071-.7417h.68v6.399zm-1.546-2.5114c.298 0 .56-.0685.786-.2055.233-.143.411-.3396.537-.5899.131-.2502.196-.5422.196-.8758 0-.3337-.065-.6256-.196-.8759-.126-.2502-.304-.4439-.537-.5809-.226-.143-.488-.2145-.786-.2145-.292 0-.554.0715-.787.2145-.226.137-.405.3307-.536.5809-.125.2503-.188.5422-.188.8759 0 .3336.063.6256.188.8758.131.2503.31.4469.536.5899.233.137.495.2055.787.2055zm5.138.6524c-.524 0-.941-.1579-1.251-.4736-.31-.3218-.465-.8133-.465-1.4747v-2.5917h.751v2.5113c0 .9235.378 1.3853 1.135 1.3853.387 0 .706-.1371.956-.4111.256-.2801.384-.6763.384-1.1887v-2.2968h.751v4.4328h-.679l-.054-.7954c-.137.28-.342.5005-.616.6613-.268.1609-.572.2413-.912.2413zm5.49 0c-.423 0-.798-.0953-1.126-.286-.328-.1966-.587-.4677-.778-.8132-.184-.3456-.277-.7537-.277-1.2244 0-.4648.093-.8699.277-1.2155.185-.3515.441-.6226.769-.8133.334-.1966.718-.2949 1.153-.2949.429 0 .798.0983 1.108.2949.316.1907.557.4439.724.7597s.25.6554.25 1.0188c0 .0656-.003.1311-.009.1966v.2235h-3.53c.018.3396.095.6226.232.849.143.2205.319.3873.528.5005.214.1132.441.1698.679.1698.31 0 .569-.0715.777-.2145.209-.143.361-.3366.456-.5809h.742c-.119.4111-.349.7537-.688 1.0278-.334.2681-.763.4021-1.287.4021zm0-4.0128c-.358 0-.676.1103-.956.3307-.274.2145-.432.5303-.474.9474h2.788c-.018-.3992-.155-.712-.411-.9384-.256-.2265-.572-.3397-.947-.3397zm4.793 4.0128c-.53 0-.971-.134-1.322-.4021-.352-.2682-.558-.6316-.617-1.0904h.768c.048.2324.17.435.367.6078.202.1668.474.2502.813.2502.316 0 .548-.0655.697-.1966.149-.1371.224-.2979.224-.4826 0-.2681-.099-.4469-.295-.5363-.191-.0893-.462-.1698-.814-.2413-.238-.0476-.476-.1161-.714-.2055-.239-.0894-.438-.2145-.599-.3754-.161-.1668-.242-.3843-.242-.6524 0-.3873.143-.7031.429-.9473.292-.2503.686-.3754 1.18-.3754.471 0 .855.1192 1.153.3575.304.2324.48.566.527 1.001h-.741c-.03-.2265-.129-.4022-.295-.5273-.161-.1311-.379-.1967-.653-.1967-.268 0-.476.0566-.625.1699-.143.1132-.215.2621-.215.4468 0 .1788.092.3188.277.4201.191.1012.447.1876.769.2591.274.0596.533.1341.777.2235.251.0834.453.2115.608.3843.161.1668.241.4111.241.7328.006.3992-.146.7299-.455.992-.304.2562-.718.3843-1.243.3843zm4.322-.1072c-.405 0-.724-.0983-.957-.2949-.232-.1967-.348-.5512-.348-1.0636v-2.4398h-.769v-.6345h.769l.098-1.0636h.653v1.0636h1.304v.6345h-1.304v2.4398c0 .2801.056.4707.169.572.114.0953.313.143.599.143h.465v.6435zm1.338.849 2.243-7.677h.742l-2.243 7.677z" fill="#92d7fe" />
	<g clip-path="url(#a)">
		<path d="m37.6895 18.8436h.2823c.0749 0 .1467.0298.1997.0827.0529.053.0827.1248.0827.1997v2.8236c0 .0749-.0298.1468-.0827.1997-.053.053-.1248.0827-.1997.0827h-4.5178c-.0749 0-.1467-.0297-.1997-.0827-.0529-.0529-.0827-.1248-.0827-.1997v-2.8236c0-.0749.0298-.1467.0827-.1997.053-.0529.1248-.0827.1997-.0827h.2824v-.2823c0-.2596.0511-.5166.1504-.7564s.2449-.4577.4285-.6413c.1835-.1835.4014-.3291.6412-.4284.2398-.0994.4968-.1505.7564-.1505s.5166.0511.7564.1505c.2398.0993.4577.2449.6412.4284.1836.1836.3292.4015.4285.6413s.1505.4968.1505.7564zm-.5648 0v-.2823c0-.3745-.1487-.7336-.4135-.9983-.2647-.2648-.6238-.4136-.9983-.4136-.3744 0-.7335.1488-.9983.4136-.2648.2647-.4135.6238-.4135.9983v.2823zm-1.6942 1.1295v1.1295h.5648v-1.1295z" fill="#92d7fe" />
	</g>
	<path d="m179.867 18.6825s-.728-.992-1.319-1.5839c-.592-.5918-1.409-.958-2.312-.958-1.805 0-3.268 1.4632-3.268 3.2681 0 1.805 1.463 3.2681 3.268 3.2681 1.49 0 2.747-.997 3.141-2.3603m.49-1.634v-2.1788m0 2.1788h-2.178" stroke="#92d7fe" stroke-linecap="round" stroke-linejoin="round" stroke-width=".726247" />
	<path d="m14.4948 56.2132c.1761-.5565.9636-.5565 1.1398 0l2.5148 7.9454c.1.3161.3477.5637.6638.6638l7.9454 2.5148c.5565.1761.5565.9637 0 1.1398l-7.9454 2.5148c-.3161.1001-.5638.3477-.6638.6638l-2.5148 7.9454c-.1762.5565-.9637.5565-1.1398 0l-2.5148-7.9454c-.1001-.3161-.3477-.5637-.6638-.6638l-7.94544-2.5148c-.55651-.1761-.55651-.9637 0-1.1398l7.94544-2.5148c.3161-.1001.5637-.3477.6638-.6638z" fill="#252527" stroke="#f5f5f6" stroke-width=".420959" />
	<g clip-path="url(#b)">
		<path clip-rule="evenodd" d="m105.979 51.9403c-.319-1.0076-1.745-1.0076-2.063 0l-1.016 3.2079c-.008.0255-.028.0456-.053.0537l-3.2083 1.0153c-1.0077.3189-1.0077 1.7449 0 2.0638l3.2083 1.0153c.025.0081.045.0281.053.0537l1.016 3.2079c.318 1.0076 1.744 1.0076 2.063 0l1.016-3.2079c.008-.0256.028-.0456.053-.0537l3.208-1.0153c1.008-.3189 1.008-1.7449 0-2.0638l-3.208-1.0153c-.025-.0081-.045-.0282-.053-.0537zm-1.11.3018c.009-.0288.021-.0387.028-.0436.01-.0073.028-.0139.05-.0139.023 0 .04.0066.051.0139.007.0049.019.0148.028.0436l1.015 3.2078c.107.3359.37.599.706.7053l3.207 1.0154c.029.0091.039.0207.044.028.007.0105.014.028.014.0505s-.007.04-.014.0505c-.005.0072-.015.0189-.044.028l-3.207 1.0153c-.336.1063-.599.3695-.706.7053l-1.015 3.2079c-.009.0288-.021.0386-.028.0436-.011.0072-.028.0139-.051.0139-.022 0-.04-.0067-.05-.0139-.007-.005-.019-.0148-.028-.0436l-1.015-3.2079c-.107-.3358-.37-.599-.706-.7053l-3.2075-1.0153c-.0288-.0091-.0387-.0208-.0437-.028-.0072-.0105-.0139-.028-.0139-.0505s.0067-.04.0139-.0505c.005-.0073.0149-.0189.0437-.028l3.2075-1.0154c.336-.1063.599-.3694.706-.7053zm11.079 13.6832v.0006l-.186 1.4995-5.34 4.43-.001.0006c-.581.4784-1.269.7282-1.964.7303h-13.6109v-4.1971h2.0732.2909l.2148-.1962 1.8392-1.6793.0001-.0001c.6991-.6372 1.5567-.9728 2.4267-.9726h6.331c.06 0 .124.0147.186.0474.064.033.127.0851.183.1588.055.0738.1.1658.125.271.026.1052.031.2168.015.3256v.0012c-.051.3427-.327.5442-.579.5442h-3.095c-.397 0-.758.1783-1.008.4603-.248.2791-.375.6407-.375 1.0018s.127.7227.375 1.0018c.25.2821.611.4603 1.008.4603h4.772.27l.208-.1726 4.735-3.9247.001-.0012c.089-.074.185-.1234.281-.1502s.193-.0317.289-.0154c.096.0164.193.0546.285.1172.092.0627.178.1493.25.2588zm0 .0006-.186 1.4992c.181-.1506.321-.3938.36-.6883.04-.2948-.028-.5877-.174-.8109zm-7.49 7.4104c.878-.0024 1.732-.3183 2.441-.9022l5.342-4.4317c.337-.2801.562-.6992.624-1.1654.063-.4662-.041-.9414-.289-1.3214-.123-.1886-.278-.348-.456-.4691s-.375-.2015-.581-.2365c-.205-.0351-.415-.0241-.617.0323s-.392.1571-.559.2964l-4.734 3.9247h-4.772c-.168 0-.329-.075-.448-.2085-.118-.1336-.185-.3147-.185-.5036s.067-.37.185-.5036c.119-.1335.28-.2085.448-.2085h3.095c.633 0 1.217-.4838 1.321-1.1844.03-.2046.021-.4142-.028-.6143-.049-.2-.136-.3857-.255-.5441s-.267-.2856-.435-.3729c-.167-.0873-.349-.1325-.533-.1325h-6.331c-1.067-.0002-2.1025.4123-2.932 1.1684l-1.8397 1.6798h-2.1902c-.1676.0012-.3279.0767-.4464.21-.1184.1332-.1855.3136-.1866.5021v4.2728c.0011.1885.0682.3689.1866.5022.1185.1333.2788.2087.4464.21z" fill="#f5f5f6" fill-rule="evenodd" />
	</g>
	<path d="m85.5821 92.3166c-.4474 0-.8324-.0844-1.155-.253-.3227-.1687-.572-.4107-.748-.726-.1687-.3227-.253-.704-.253-1.144h.781c.0073.264.0513.506.132.726.088.2126.231.385.429.517s.4693.198.814.198c.3373 0 .5976-.0624.781-.187.1906-.132.3263-.3044.407-.517.088-.22.132-.462.132-.726v-5.72h.77v5.72c0 .6673-.187 1.188-.561 1.562-.3667.3666-.8764.55-1.529.55zm5.7325 0c-.418 0-.7883-.0807-1.111-.242-.3153-.1687-.561-.4217-.737-.759-.176-.3447-.264-.7847-.264-1.32v-3.355h.77v3.267c0 .5866.1283 1.023.385 1.309.264.286.627.429 1.089.429.33 0 .6233-.077.88-.231.264-.154.4693-.3814.616-.682.154-.308.231-.682.231-1.122v-2.97h.77v5.544h-.704l-.044-.99c-.176.3593-.4327.638-.77.836-.33.1906-.7003.286-1.111.286zm7.0233 0c-.3227 0-.6197-.0477-.891-.143-.264-.1027-.495-.2384-.693-.407-.198-.176-.3557-.374-.473-.594l-.066 1.012h-.704v-7.92h.77v3.377c.1833-.3154.4473-.583.792-.803.3446-.22.7663-.33 1.265-.33.5426 0 1.0156.1283 1.419.385.4031.2493.7111.594.9241 1.034.22.4326.33.9276.33 1.485 0 .5573-.11 1.056-.33 1.496s-.532.7846-.9351 1.034c-.396.2493-.8654.374-1.408.374zm-.055-.671c.3886 0 .726-.0917 1.012-.275.286-.1834.5133-.4437.682-.781.1691-.3374.2531-.7297.2531-1.177 0-.4547-.084-.847-.2531-1.177-.1687-.3374-.3997-.5977-.693-.781-.286-.1834-.6197-.275-1.001-.275-.3814 0-.7224.0916-1.023.275-.2934.1833-.5244.4436-.693.781-.1614.3373-.242.7296-.242 1.177 0 .4546.0806.8506.242 1.188.1686.33.3996.5866.693.77.3006.1833.6416.275 1.023.275zm4.0491.539v-5.544h.704l.055.836c.169-.308.403-.5464.704-.715.301-.1687.634-.253 1.001-.253.271 0 .524.0403.759.121.235.0806.44.2016.616.363.183.1613.326.3703.429.627.183-.3447.44-.616.77-.814.337-.198.697-.297 1.078-.297.425 0 .792.0843 1.1.253.315.1686.561.4253.737.77.176.3446.264.781.264 1.309v3.344h-.77v-3.256c0-.5867-.121-1.023-.363-1.309-.242-.2934-.579-.44-1.012-.44-.293 0-.561.0806-.803.242-.242.154-.433.3813-.572.682-.139.2933-.209.66-.209 1.1v2.981h-.77v-3.256c0-.5867-.121-1.023-.363-1.309-.235-.2934-.568-.44-1.001-.44-.301 0-.572.0806-.814.242-.235.154-.422.385-.561.693-.139.3006-.209.6746-.209 1.122v2.948zm12.11.132c-.506 0-.964-.1174-1.375-.352-.403-.242-.722-.5794-.957-1.012-.235-.44-.352-.9497-.352-1.529 0-.6014.117-1.1184.352-1.551.242-.4327.568-.7664.979-1.001.411-.242.869-.363 1.375-.363.528 0 .994.121 1.397.363.403.2346.722.5683.957 1.001.235.4326.352.9496.352 1.551 0 .5793-.121 1.089-.363 1.529-.235.4326-.557.77-.968 1.012-.403.2346-.869.352-1.397.352zm.011-.66c.345 0 .66-.0844.946-.253.293-.1687.528-.418.704-.748.183-.3374.275-.7517.275-1.243 0-.4987-.088-.913-.264-1.243s-.411-.5757-.704-.737c-.286-.1687-.601-.253-.946-.253-.33 0-.642.0843-.935.253-.293.1686-.532.418-.715.748-.176.3226-.264.7333-.264 1.232 0 .4913.088.9056.264 1.243.176.33.407.5793.693.748.293.1686.609.253.946.253zm2.968 2.948v-.66h.418c.286 0 .492-.0624.616-.187.125-.1174.187-.319.187-.605v-6.512h.77v6.545c0 .3226-.055.5866-.165.792-.102.2126-.264.3703-.484.473-.212.1026-.48.154-.803.154zm1.617-9.273c-.154 0-.286-.0514-.396-.154-.11-.11-.165-.2457-.165-.407 0-.1687.055-.3007.165-.396.11-.1027.242-.154.396-.154.147 0 .272.0513.374.154.11.0953.165.2273.165.396 0 .1613-.051.297-.154.407-.102.1026-.231.154-.385.154zm2.149 6.853v-5.544h.759v5.544zm.385-6.853c-.154 0-.286-.0514-.396-.154-.11-.11-.165-.2457-.165-.407 0-.1687.052-.3007.154-.396.11-.1027.242-.154.396-.154s.286.0513.396.154c.11.0953.165.2273.165.396 0 .1613-.055.297-.165.407-.102.1026-.231.154-.385.154zm4.086 6.985c-.44 0-.829-.0734-1.166-.22-.33-.1467-.598-.3557-.803-.627-.198-.2787-.319-.6087-.363-.99h.792c.044.2126.128.407.253.583.132.176.308.319.528.429.22.1026.48.154.781.154.279 0 .506-.0404.682-.121.183-.088.319-.2017.407-.341.095-.1467.143-.308.143-.484 0-.242-.059-.429-.176-.561-.11-.1394-.271-.242-.484-.308s-.469-.1284-.77-.187c-.249-.044-.488-.1027-.715-.176-.227-.0734-.433-.1687-.616-.286-.176-.1174-.315-.264-.418-.44-.103-.1834-.154-.396-.154-.638 0-.3154.077-.5904.231-.825.161-.242.389-.429.682-.561.293-.1394.638-.209 1.034-.209.565 0 1.027.143 1.386.429.359.2786.568.6893.627 1.232h-.77c-.029-.3007-.154-.539-.374-.715s-.517-.264-.891-.264c-.367 0-.649.077-.847.231-.191.1466-.286.3483-.286.605 0 .1613.051.3006.154.418.103.1173.253.22.451.308.205.0806.455.1503.748.209.352.066.675.154.968.264.301.1026.543.264.726.484.191.2126.286.517.286.913.007.33-.073.6233-.242.88-.169.2566-.407.4583-.715.605-.308.1393-.671.209-1.089.209z" fill="#f5f5f6" />
</svg>
