<svg width="16" height="16" viewBox="0 0 16 16" fill="none" xmlns="http://www.w3.org/2000/svg">
<path fill-rule="evenodd" clip-rule="evenodd" d="M8 16C3.58172 16 0 12.4183 0 8C0 3.58172 3.58172 0 8 0C12.4183 0 16 3.58172 16 8C16 12.4183 12.4183 16 8 16ZM8.34592 6.00369C7.62943 6.3017 6.19744 6.91852 4.04996 7.85415C3.70124 7.99282 3.51857 8.12848 3.50194 8.26113C3.47383 8.48532 3.75457 8.57359 4.13687 8.6938C4.18887 8.71016 4.24275 8.7271 4.29799 8.74505C4.67411 8.86732 5.18006 9.01035 5.44308 9.01603C5.68166 9.02119 5.94795 8.92283 6.24194 8.72095C8.2484 7.36653 9.28414 6.68195 9.34917 6.66719C9.39504 6.65678 9.45862 6.64368 9.50169 6.68197C9.54476 6.72025 9.54053 6.79276 9.53597 6.81221C9.50815 6.93077 8.40615 7.95529 7.83586 8.48549C7.65807 8.65077 7.53196 8.76802 7.50618 8.79479C7.44843 8.85478 7.38957 8.91152 7.333 8.96605C6.98358 9.30289 6.72155 9.5555 7.34751 9.968C7.64833 10.1662 7.88904 10.3302 8.12919 10.4937C8.39144 10.6723 8.65302 10.8504 8.99147 11.0723C9.07769 11.1288 9.16004 11.1875 9.24025 11.2447C9.54546 11.4623 9.81967 11.6578 10.1584 11.6266C10.3553 11.6085 10.5586 11.4234 10.6619 10.8714C10.9059 9.56675 11.3856 6.74005 11.4964 5.57523C11.5062 5.47318 11.4939 5.34257 11.4841 5.28524C11.4743 5.2279 11.4538 5.14622 11.3793 5.08574C11.291 5.01413 11.1548 4.99903 11.0938 5.00005C10.8168 5.00498 10.3917 5.15279 8.34592 6.00369Z" fill="#252527"/>
</svg>
