<svg width="232" height="42" viewBox="0 0 232 42" fill="none" xmlns="http://www.w3.org/2000/svg">
<rect x="0.5" y="0.5" width="231" height="41" rx="7.5" fill="black"/>
<g clip-path="url(#clip0_1371_16454)">
<path d="M27 33L28.6963 26.8403C27.6476 25.0323 27.0974 22.9848 27.1032 20.8916C27.1032 14.3327 32.467 9 39.0516 9C42.2493 9 45.2521 10.2376 47.5043 12.4848C49.7622 14.7319 51.0057 17.7205 51 20.8973C51 27.4563 45.6361 32.789 39.0458 32.789H39.0401C37.0401 32.789 35.0745 32.2871 33.3266 31.3403L27 33ZM33.6304 29.1901L33.9914 29.4068C35.5158 30.308 37.2636 30.7814 39.0458 30.7871H39.0516C44.5243 30.7871 48.9828 26.3555 48.9828 20.903C48.9828 18.2624 47.9513 15.7814 46.0773 13.9106C44.2034 12.0399 41.7049 11.0133 39.0516 11.0133C33.5788 11.0076 29.1203 15.4392 29.1203 20.8916C29.1203 22.7567 29.6418 24.576 30.639 26.1502L30.8739 26.5266L29.8711 30.1711L33.6304 29.1901Z" fill="white"/>
<path d="M27.4185 32.5836L29.0574 26.6349C28.0431 24.8954 27.5101 22.9163 27.5101 20.8973C27.5159 14.5665 32.6907 9.41626 39.0517 9.41626C42.1405 9.41626 45.0345 10.614 47.2121 12.7813C49.3898 14.9486 50.5875 17.8345 50.5875 20.903C50.5875 27.2338 45.407 32.3839 39.0517 32.3839H39.046C37.1147 32.3839 35.2179 31.8992 33.5331 30.9866L27.4185 32.5836Z" fill="url(#paint0_linear_1371_16454)"/>
<path d="M27 33L28.6963 26.8403C27.6476 25.0323 27.0974 22.9848 27.1032 20.8916C27.1032 14.3327 32.467 9 39.0516 9C42.2493 9 45.2521 10.2376 47.5043 12.4848C49.7622 14.7319 51.0057 17.7205 51 20.8973C51 27.4563 45.6361 32.789 39.0458 32.789H39.0401C37.0401 32.789 35.0745 32.2871 33.3266 31.3403L27 33ZM33.6304 29.1901L33.9914 29.4068C35.5158 30.308 37.2636 30.7814 39.0458 30.7871H39.0516C44.5243 30.7871 48.9828 26.3555 48.9828 20.903C48.9828 18.2624 47.9513 15.7814 46.0773 13.9106C44.2034 12.0399 41.7049 11.0133 39.0516 11.0133C33.5788 11.0076 29.1203 15.4392 29.1203 20.8916C29.1203 22.7567 29.6418 24.576 30.639 26.1502L30.8739 26.5266L29.8711 30.1711L33.6304 29.1901Z" fill="url(#paint1_linear_1371_16454)"/>
<path fill-rule="evenodd" clip-rule="evenodd" d="M36.0658 15.9183C35.8423 15.4221 35.6073 15.4107 35.3953 15.405C35.2234 15.3993 35.0228 15.3993 34.8222 15.3993C34.6216 15.3993 34.3007 15.4734 34.0256 15.77C33.7506 16.0666 32.9827 16.7852 32.9827 18.251C32.9827 19.7111 34.0543 21.1255 34.2033 21.3251C34.3523 21.5248 36.2721 24.6217 39.3036 25.8137C41.8251 26.8061 42.3408 26.6065 42.8852 26.5552C43.4297 26.5039 44.6503 25.8366 44.9024 25.1407C45.1488 24.4449 45.1488 23.8518 45.0743 23.7263C44.9998 23.6008 44.7993 23.5267 44.5013 23.3784C44.2033 23.2301 42.7362 22.5115 42.4612 22.4088C42.1861 22.3118 41.9855 22.2605 41.7907 22.5571C41.5901 22.8537 41.017 23.521 40.8451 23.7206C40.6732 23.9202 40.4956 23.943 40.1976 23.7947C39.8996 23.6464 38.9368 23.3328 37.7964 22.3175C36.9082 21.5305 36.3064 20.5552 36.1345 20.2586C35.9626 19.962 36.1173 19.8023 36.2663 19.654C36.3981 19.5229 36.5643 19.3061 36.7133 19.135C36.8623 18.9639 36.9139 18.8385 37.0113 18.6388C37.1087 18.4392 37.0629 18.2681 36.9884 18.1198C36.9139 17.9772 36.3294 16.5058 36.0658 15.9183Z" fill="white"/>
</g>
<path d="M68.2387 25.668C67.5201 25.668 66.8901 25.542 66.3487 25.29C65.8074 25.038 65.3827 24.6787 65.0747 24.212C64.7761 23.7453 64.6221 23.19 64.6127 22.546H66.1807C66.1901 23.0687 66.3721 23.512 66.7267 23.876C67.0814 24.24 67.5807 24.422 68.2247 24.422C68.7941 24.422 69.2374 24.2867 69.5547 24.016C69.8814 23.736 70.0447 23.3813 70.0447 22.952C70.0447 22.6067 69.9654 22.3267 69.8067 22.112C69.6574 21.8973 69.4474 21.72 69.1767 21.58C68.9154 21.44 68.6121 21.314 68.2667 21.202C67.9214 21.09 67.5574 20.9687 67.1747 20.838C66.4187 20.586 65.8494 20.2593 65.4667 19.858C65.0934 19.4567 64.9067 18.9293 64.9067 18.276C64.8974 17.7253 65.0234 17.2447 65.2847 16.834C65.5554 16.4233 65.9287 16.106 66.4047 15.882C66.8901 15.6487 67.4547 15.532 68.0987 15.532C68.7334 15.532 69.2887 15.6487 69.7647 15.882C70.2501 16.1153 70.6281 16.442 70.8987 16.862C71.1694 17.2727 71.3094 17.7533 71.3187 18.304H69.7507C69.7507 18.052 69.6854 17.814 69.5547 17.59C69.4241 17.3567 69.2327 17.1653 68.9807 17.016C68.7287 16.8667 68.4207 16.792 68.0567 16.792C67.5901 16.7827 67.2027 16.8993 66.8947 17.142C66.5961 17.3847 66.4467 17.7207 66.4467 18.15C66.4467 18.5327 66.5587 18.8267 66.7827 19.032C67.0067 19.2373 67.3147 19.41 67.7067 19.55C68.0987 19.6807 68.5467 19.8347 69.0507 20.012C69.5361 20.1707 69.9701 20.362 70.3527 20.586C70.7354 20.81 71.0387 21.104 71.2627 21.468C71.4961 21.832 71.6127 22.294 71.6127 22.854C71.6127 23.3487 71.4867 23.8107 71.2347 24.24C70.9827 24.66 70.6047 25.0053 70.1007 25.276C69.5967 25.5373 68.9761 25.668 68.2387 25.668ZM76.4272 25.668C75.7459 25.668 75.1392 25.5187 74.6072 25.22C74.0845 24.912 73.6739 24.4873 73.3752 23.946C73.0765 23.4047 72.9272 22.7747 72.9272 22.056C72.9272 21.328 73.0719 20.6887 73.3612 20.138C73.6599 19.5873 74.0705 19.158 74.5932 18.85C75.1252 18.542 75.7412 18.388 76.4412 18.388C77.1225 18.388 77.7152 18.542 78.2192 18.85C78.7232 19.1487 79.1152 19.55 79.3952 20.054C79.6752 20.558 79.8152 21.1133 79.8152 21.72C79.8152 21.8133 79.8105 21.916 79.8012 22.028C79.8012 22.1307 79.7965 22.2473 79.7872 22.378H74.3832C74.4299 23.05 74.6492 23.5633 75.0412 23.918C75.4425 24.2633 75.9045 24.436 76.4272 24.436C76.8472 24.436 77.1972 24.3427 77.4772 24.156C77.7665 23.96 77.9812 23.6987 78.1212 23.372H79.6052C79.4185 24.0253 79.0452 24.5713 78.4852 25.01C77.9345 25.4487 77.2485 25.668 76.4272 25.668ZM76.4272 19.606C75.9325 19.606 75.4939 19.7553 75.1112 20.054C74.7285 20.3433 74.4952 20.782 74.4112 21.37H78.3312C78.3032 20.8287 78.1119 20.3993 77.7572 20.082C77.4025 19.7647 76.9592 19.606 76.4272 19.606ZM81.355 25.5V18.556H82.671L82.783 19.774C82.9977 19.3447 83.3103 19.0087 83.721 18.766C84.141 18.514 84.6217 18.388 85.163 18.388C86.003 18.388 86.661 18.6493 87.137 19.172C87.6223 19.6947 87.865 20.474 87.865 21.51V25.5H86.395V21.664C86.395 20.32 85.8443 19.648 84.743 19.648C84.1923 19.648 83.735 19.844 83.371 20.236C83.0163 20.628 82.839 21.188 82.839 21.916V25.5H81.355ZM92.7768 25.668C92.1048 25.668 91.5121 25.5093 90.9988 25.192C90.4855 24.8747 90.0841 24.4407 89.7948 23.89C89.5055 23.3393 89.3608 22.714 89.3608 22.014C89.3608 21.314 89.5055 20.6933 89.7948 20.152C90.0841 19.6013 90.4855 19.172 90.9988 18.864C91.5215 18.5467 92.1188 18.388 92.7908 18.388C93.3415 18.388 93.8221 18.4953 94.2328 18.71C94.6528 18.9247 94.9795 19.228 95.2128 19.62V15.42H96.6968V25.5H95.3668L95.2128 24.422C94.9888 24.7487 94.6808 25.038 94.2888 25.29C93.8968 25.542 93.3928 25.668 92.7768 25.668ZM93.0428 24.38C93.6775 24.38 94.1955 24.1607 94.5968 23.722C95.0075 23.2833 95.2128 22.7187 95.2128 22.028C95.2128 21.328 95.0075 20.7633 94.5968 20.334C94.1955 19.8953 93.6775 19.676 93.0428 19.676C92.4081 19.676 91.8855 19.8953 91.4748 20.334C91.0641 20.7633 90.8588 21.328 90.8588 22.028C90.8588 22.4853 90.9521 22.8913 91.1388 23.246C91.3255 23.6007 91.5821 23.8807 91.9088 24.086C92.2448 24.282 92.6228 24.38 93.0428 24.38ZM102.095 25.5V18.556H103.411L103.537 19.536C103.761 19.1813 104.055 18.9013 104.419 18.696C104.793 18.4907 105.222 18.388 105.707 18.388C106.809 18.388 107.574 18.822 108.003 19.69C108.255 19.2887 108.591 18.9713 109.011 18.738C109.441 18.5047 109.903 18.388 110.397 18.388C111.265 18.388 111.947 18.6493 112.441 19.172C112.936 19.6947 113.183 20.474 113.183 21.51V25.5H111.699V21.664C111.699 20.32 111.186 19.648 110.159 19.648C109.637 19.648 109.207 19.844 108.871 20.236C108.545 20.628 108.381 21.188 108.381 21.916V25.5H106.897V21.664C106.897 20.32 106.379 19.648 105.343 19.648C104.83 19.648 104.405 19.844 104.069 20.236C103.743 20.628 103.579 21.188 103.579 21.916V25.5H102.095ZM118.167 25.668C117.486 25.668 116.879 25.5187 116.347 25.22C115.825 24.912 115.414 24.4873 115.115 23.946C114.817 23.4047 114.667 22.7747 114.667 22.056C114.667 21.328 114.812 20.6887 115.101 20.138C115.4 19.5873 115.811 19.158 116.333 18.85C116.865 18.542 117.481 18.388 118.181 18.388C118.863 18.388 119.455 18.542 119.959 18.85C120.463 19.1487 120.855 19.55 121.135 20.054C121.415 20.558 121.555 21.1133 121.555 21.72C121.555 21.8133 121.551 21.916 121.541 22.028C121.541 22.1307 121.537 22.2473 121.527 22.378H116.123C116.17 23.05 116.389 23.5633 116.781 23.918C117.183 24.2633 117.645 24.436 118.167 24.436C118.587 24.436 118.937 24.3427 119.217 24.156C119.507 23.96 119.721 23.6987 119.861 23.372H121.345C121.159 24.0253 120.785 24.5713 120.225 25.01C119.675 25.4487 118.989 25.668 118.167 25.668ZM118.167 19.606C117.673 19.606 117.234 19.7553 116.851 20.054C116.469 20.3433 116.235 20.782 116.151 21.37H120.071C120.043 20.8287 119.852 20.3993 119.497 20.082C119.143 19.7647 118.699 19.606 118.167 19.606ZM125.867 25.668C124.99 25.668 124.267 25.4533 123.697 25.024C123.128 24.5947 122.801 24.0253 122.717 23.316H124.215C124.29 23.6333 124.467 23.9087 124.747 24.142C125.027 24.366 125.396 24.478 125.853 24.478C126.301 24.478 126.628 24.3847 126.833 24.198C127.039 24.0113 127.141 23.7967 127.141 23.554C127.141 23.1993 126.997 22.9613 126.707 22.84C126.427 22.7093 126.035 22.5927 125.531 22.49C125.139 22.406 124.747 22.294 124.355 22.154C123.973 22.014 123.651 21.818 123.389 21.566C123.137 21.3047 123.011 20.9547 123.011 20.516C123.011 19.9093 123.245 19.4053 123.711 19.004C124.178 18.5933 124.831 18.388 125.671 18.388C126.446 18.388 127.071 18.5747 127.547 18.948C128.033 19.3213 128.317 19.8487 128.401 20.53H126.973C126.927 20.2313 126.787 19.998 126.553 19.83C126.329 19.662 126.026 19.578 125.643 19.578C125.27 19.578 124.981 19.6573 124.775 19.816C124.57 19.9653 124.467 20.1613 124.467 20.404C124.467 20.6467 124.607 20.838 124.887 20.978C125.177 21.118 125.555 21.244 126.021 21.356C126.488 21.4587 126.917 21.58 127.309 21.72C127.711 21.8507 128.033 22.0467 128.275 22.308C128.518 22.5693 128.639 22.952 128.639 23.456C128.649 24.0907 128.401 24.618 127.897 25.038C127.403 25.458 126.726 25.668 125.867 25.668ZM133.031 25.668C132.154 25.668 131.431 25.4533 130.861 25.024C130.292 24.5947 129.965 24.0253 129.881 23.316H131.379C131.454 23.6333 131.631 23.9087 131.911 24.142C132.191 24.366 132.56 24.478 133.017 24.478C133.465 24.478 133.792 24.3847 133.997 24.198C134.203 24.0113 134.305 23.7967 134.305 23.554C134.305 23.1993 134.161 22.9613 133.871 22.84C133.591 22.7093 133.199 22.5927 132.695 22.49C132.303 22.406 131.911 22.294 131.519 22.154C131.137 22.014 130.815 21.818 130.553 21.566C130.301 21.3047 130.175 20.9547 130.175 20.516C130.175 19.9093 130.409 19.4053 130.875 19.004C131.342 18.5933 131.995 18.388 132.835 18.388C133.61 18.388 134.235 18.5747 134.711 18.948C135.197 19.3213 135.481 19.8487 135.565 20.53H134.137C134.091 20.2313 133.951 19.998 133.717 19.83C133.493 19.662 133.19 19.578 132.807 19.578C132.434 19.578 132.145 19.6573 131.939 19.816C131.734 19.9653 131.631 20.1613 131.631 20.404C131.631 20.6467 131.771 20.838 132.051 20.978C132.341 21.118 132.719 21.244 133.185 21.356C133.652 21.4587 134.081 21.58 134.473 21.72C134.875 21.8507 135.197 22.0467 135.439 22.308C135.682 22.5693 135.803 22.952 135.803 23.456C135.813 24.0907 135.565 24.618 135.061 25.038C134.567 25.458 133.89 25.668 133.031 25.668ZM139.775 25.668C139.187 25.668 138.702 25.57 138.319 25.374C137.937 25.178 137.652 24.9213 137.465 24.604C137.279 24.2773 137.185 23.9227 137.185 23.54C137.185 22.868 137.447 22.336 137.969 21.944C138.492 21.552 139.239 21.356 140.209 21.356H142.029V21.23C142.029 20.6887 141.88 20.2827 141.581 20.012C141.292 19.7413 140.914 19.606 140.447 19.606C140.037 19.606 139.677 19.7087 139.369 19.914C139.071 20.11 138.889 20.404 138.823 20.796H137.339C137.386 20.292 137.554 19.8627 137.843 19.508C138.142 19.144 138.515 18.8687 138.963 18.682C139.421 18.486 139.92 18.388 140.461 18.388C141.432 18.388 142.183 18.6447 142.715 19.158C143.247 19.662 143.513 20.3527 143.513 21.23V25.5H142.225L142.099 24.31C141.903 24.6927 141.619 25.0147 141.245 25.276C140.872 25.5373 140.382 25.668 139.775 25.668ZM140.069 24.464C140.471 24.464 140.807 24.3707 141.077 24.184C141.357 23.988 141.572 23.7313 141.721 23.414C141.88 23.0967 141.978 22.7467 142.015 22.364H140.363C139.775 22.364 139.355 22.4667 139.103 22.672C138.861 22.8773 138.739 23.134 138.739 23.442C138.739 23.7593 138.856 24.0113 139.089 24.198C139.332 24.3753 139.659 24.464 140.069 24.464ZM148.086 23.372C147.722 23.372 147.386 23.33 147.078 23.246L146.476 23.834C146.578 23.8993 146.704 23.9553 146.854 24.002C147.003 24.0487 147.213 24.0907 147.484 24.128C147.754 24.1653 148.123 24.2027 148.59 24.24C149.514 24.324 150.181 24.548 150.592 24.912C151.002 25.2667 151.208 25.7427 151.208 26.34C151.208 26.7507 151.096 27.138 150.872 27.502C150.657 27.8753 150.316 28.174 149.85 28.398C149.392 28.6313 148.804 28.748 148.086 28.748C147.115 28.748 146.326 28.5613 145.72 28.188C145.122 27.824 144.824 27.2687 144.824 26.522C144.824 26.2327 144.898 25.9433 145.048 25.654C145.206 25.374 145.454 25.108 145.79 24.856C145.594 24.772 145.421 24.6833 145.272 24.59C145.132 24.4873 145.006 24.3847 144.894 24.282V23.946L146.098 22.714C145.556 22.2473 145.286 21.636 145.286 20.88C145.286 20.4227 145.393 20.0073 145.608 19.634C145.832 19.2513 146.154 18.948 146.574 18.724C146.994 18.5 147.498 18.388 148.086 18.388C148.478 18.388 148.842 18.444 149.178 18.556H151.768V19.536L150.536 19.606C150.76 19.9887 150.872 20.4133 150.872 20.88C150.872 21.3467 150.76 21.7667 150.536 22.14C150.321 22.5133 150.004 22.812 149.584 23.036C149.173 23.26 148.674 23.372 148.086 23.372ZM148.086 22.21C148.515 22.21 148.86 22.098 149.122 21.874C149.392 21.6407 149.528 21.314 149.528 20.894C149.528 20.4647 149.392 20.138 149.122 19.914C148.86 19.69 148.515 19.578 148.086 19.578C147.647 19.578 147.292 19.69 147.022 19.914C146.76 20.138 146.63 20.4647 146.63 20.894C146.63 21.314 146.76 21.6407 147.022 21.874C147.292 22.098 147.647 22.21 148.086 22.21ZM146.224 26.382C146.224 26.7833 146.401 27.082 146.756 27.278C147.11 27.4833 147.554 27.586 148.086 27.586C148.599 27.586 149.014 27.474 149.332 27.25C149.649 27.0353 149.808 26.746 149.808 26.382C149.808 26.1113 149.7 25.878 149.486 25.682C149.271 25.4953 148.865 25.3787 148.268 25.332C147.82 25.304 147.423 25.262 147.078 25.206C146.751 25.3833 146.527 25.5747 146.406 25.78C146.284 25.9853 146.224 26.186 146.224 26.382ZM156.066 25.668C155.385 25.668 154.778 25.5187 154.246 25.22C153.723 24.912 153.313 24.4873 153.014 23.946C152.715 23.4047 152.566 22.7747 152.566 22.056C152.566 21.328 152.711 20.6887 153 20.138C153.299 19.5873 153.709 19.158 154.232 18.85C154.764 18.542 155.38 18.388 156.08 18.388C156.761 18.388 157.354 18.542 157.858 18.85C158.362 19.1487 158.754 19.55 159.034 20.054C159.314 20.558 159.454 21.1133 159.454 21.72C159.454 21.8133 159.449 21.916 159.44 22.028C159.44 22.1307 159.435 22.2473 159.426 22.378H154.022C154.069 23.05 154.288 23.5633 154.68 23.918C155.081 24.2633 155.543 24.436 156.066 24.436C156.486 24.436 156.836 24.3427 157.116 24.156C157.405 23.96 157.62 23.6987 157.76 23.372H159.244C159.057 24.0253 158.684 24.5713 158.124 25.01C157.573 25.4487 156.887 25.668 156.066 25.668ZM156.066 19.606C155.571 19.606 155.133 19.7553 154.75 20.054C154.367 20.3433 154.134 20.782 154.05 21.37H157.97C157.942 20.8287 157.751 20.3993 157.396 20.082C157.041 19.7647 156.598 19.606 156.066 19.606ZM167.433 25.5C166.752 25.5 166.21 25.3367 165.809 25.01C165.408 24.674 165.207 24.0813 165.207 23.232V19.802H164.017V18.556H165.207L165.389 16.792H166.691V18.556H168.651V19.802H166.691V23.232C166.691 23.6147 166.77 23.8807 166.929 24.03C167.097 24.17 167.382 24.24 167.783 24.24H168.581V25.5H167.433ZM173.251 25.668C172.589 25.668 171.991 25.5187 171.459 25.22C170.937 24.912 170.521 24.4873 170.213 23.946C169.905 23.3953 169.751 22.756 169.751 22.028C169.751 21.3 169.905 20.6653 170.213 20.124C170.531 19.5733 170.955 19.1487 171.487 18.85C172.019 18.542 172.612 18.388 173.265 18.388C173.928 18.388 174.521 18.542 175.043 18.85C175.575 19.1487 175.995 19.5733 176.303 20.124C176.621 20.6653 176.779 21.3 176.779 22.028C176.779 22.756 176.621 23.3953 176.303 23.946C175.995 24.4873 175.575 24.912 175.043 25.22C174.511 25.5187 173.914 25.668 173.251 25.668ZM173.251 24.394C173.606 24.394 173.933 24.3053 174.231 24.128C174.539 23.9507 174.787 23.6893 174.973 23.344C175.16 22.9893 175.253 22.5507 175.253 22.028C175.253 21.5053 175.16 21.0713 174.973 20.726C174.796 20.3713 174.553 20.1053 174.245 19.928C173.947 19.7507 173.62 19.662 173.265 19.662C172.911 19.662 172.579 19.7507 172.271 19.928C171.973 20.1053 171.73 20.3713 171.543 20.726C171.357 21.0713 171.263 21.5053 171.263 22.028C171.263 22.5507 171.357 22.9893 171.543 23.344C171.73 23.6893 171.973 23.9507 172.271 24.128C172.57 24.3053 172.897 24.394 173.251 24.394ZM184.684 25.668C183.806 25.668 183.083 25.4533 182.514 25.024C181.944 24.5947 181.618 24.0253 181.534 23.316H183.032C183.106 23.6333 183.284 23.9087 183.564 24.142C183.844 24.366 184.212 24.478 184.67 24.478C185.118 24.478 185.444 24.3847 185.65 24.198C185.855 24.0113 185.958 23.7967 185.958 23.554C185.958 23.1993 185.813 22.9613 185.524 22.84C185.244 22.7093 184.852 22.5927 184.348 22.49C183.956 22.406 183.564 22.294 183.172 22.154C182.789 22.014 182.467 21.818 182.206 21.566C181.954 21.3047 181.828 20.9547 181.828 20.516C181.828 19.9093 182.061 19.4053 182.528 19.004C182.994 18.5933 183.648 18.388 184.488 18.388C185.262 18.388 185.888 18.5747 186.364 18.948C186.849 19.3213 187.134 19.8487 187.218 20.53H185.79C185.743 20.2313 185.603 19.998 185.37 19.83C185.146 19.662 184.842 19.578 184.46 19.578C184.086 19.578 183.797 19.6573 183.592 19.816C183.386 19.9653 183.284 20.1613 183.284 20.404C183.284 20.6467 183.424 20.838 183.704 20.978C183.993 21.118 184.371 21.244 184.838 21.356C185.304 21.4587 185.734 21.58 186.126 21.72C186.527 21.8507 186.849 22.0467 187.092 22.308C187.334 22.5693 187.456 22.952 187.456 23.456C187.465 24.0907 187.218 24.618 186.714 25.038C186.219 25.458 185.542 25.668 184.684 25.668ZM192.324 25.668C191.642 25.668 191.036 25.5187 190.504 25.22C189.981 24.912 189.57 24.4873 189.272 23.946C188.973 23.4047 188.824 22.7747 188.824 22.056C188.824 21.328 188.968 20.6887 189.258 20.138C189.556 19.5873 189.967 19.158 190.49 18.85C191.022 18.542 191.638 18.388 192.338 18.388C193.019 18.388 193.612 18.542 194.116 18.85C194.62 19.1487 195.012 19.55 195.292 20.054C195.572 20.558 195.712 21.1133 195.712 21.72C195.712 21.8133 195.707 21.916 195.698 22.028C195.698 22.1307 195.693 22.2473 195.684 22.378H190.28C190.326 23.05 190.546 23.5633 190.938 23.918C191.339 24.2633 191.801 24.436 192.324 24.436C192.744 24.436 193.094 24.3427 193.374 24.156C193.663 23.96 193.878 23.6987 194.018 23.372H195.502C195.315 24.0253 194.942 24.5713 194.382 25.01C193.831 25.4487 193.145 25.668 192.324 25.668ZM192.324 19.606C191.829 19.606 191.39 19.7553 191.008 20.054C190.625 20.3433 190.392 20.782 190.308 21.37H194.228C194.2 20.8287 194.008 20.3993 193.654 20.082C193.299 19.7647 192.856 19.606 192.324 19.606ZM197.251 25.5V15.42H198.735V25.5H197.251ZM200.965 25.5V19.802H199.971V18.556H200.965V17.548C200.965 16.792 201.151 16.2507 201.525 15.924C201.907 15.588 202.444 15.42 203.135 15.42H203.863V16.68H203.359C203.032 16.68 202.799 16.75 202.659 16.89C202.519 17.0207 202.449 17.2447 202.449 17.562V18.556H204.045V19.802H202.449V25.5H200.965Z" fill="#F5F5F6"/>
<rect x="0.5" y="0.5" width="231" height="41" rx="7.5" stroke="#A6A6A6"/>
<defs>
<linearGradient id="paint0_linear_1371_16454" x1="39.0024" y1="32.5824" x2="39.0024" y2="9.41545" gradientUnits="userSpaceOnUse">
<stop stop-color="#20B038"/>
<stop offset="1" stop-color="#60D66A"/>
</linearGradient>
<linearGradient id="paint1_linear_1371_16454" x1="39.0023" y1="32.9977" x2="39.0023" y2="9" gradientUnits="userSpaceOnUse">
<stop stop-color="#F9F9F9"/>
<stop offset="1" stop-color="white"/>
</linearGradient>
<clipPath id="clip0_1371_16454">
<rect width="24" height="24" fill="white" transform="translate(27 9)"/>
</clipPath>
</defs>
</svg>
